<?xml version="1.0" standalone="no"?>
<!DOCTYPE svg PUBLIC "-//W3C//DTD SVG 1.1//EN" "http://www.w3.org/Graphics/SVG/1.1/DTD/svg11.dtd" >
<svg xmlns="http://www.w3.org/2000/svg">
<metadata></metadata>
<defs>
<font id="testtest" horiz-adv-x="1220" >
<font-face units-per-em="2048" ascent="1583" descent="-465" />
<missing-glyph horiz-adv-x="434" />
<glyph horiz-adv-x="2048" />
<glyph horiz-adv-x="2048" />
<glyph horiz-adv-x="434" />
<glyph unicode=" "  horiz-adv-x="434" />
<glyph unicode="&#x09;" horiz-adv-x="434" />
<glyph unicode="&#xa0;" horiz-adv-x="434" />
<glyph unicode="!" horiz-adv-x="634" d="M160 154q0 57 43 102q47 49 121 49q63 0 108 -49q41 -45 41 -102q0 -66 -41 -113q-45 -51 -108 -51q-74 0 -121 51q-43 47 -43 113zM193 496v938h249v-938h-249z" />
<glyph unicode="&#x22;" horiz-adv-x="884" d="M137 940v494h236v-494h-236zM510 940v494h235v-494h-235z" />
<glyph unicode="#" horiz-adv-x="1482" d="M82 369v204h235l107 287h-342v205h420l145 391l182 -65l-120 -326h309l145 391l183 -63l-121 -328h176v-205h-252l-107 -287h359v-204h-434l-144 -392l-182 66l121 326h-313l-146 -392l-182 64l121 328h-160zM524 573h314l104 287h-311z" />
<glyph unicode="$" d="M150 203l143 172q125 -162 330 -162q193 0 192 168q0 92 -102 160q-31 20 -221 110q-154 72 -224 146q-102 106 -102 264q0 137 90 242q94 109 248 141v174h235v-170q195 -31 299 -145l-135 -189q-111 106 -254 107q-217 0 -217 -158q0 -96 103 -164q33 -23 223 -108 q152 -70 221 -142q102 -104 102 -266q0 -152 -94 -258q-94 -104 -248 -135v-195h-235v193q-274 45 -354 215z" />
<glyph unicode="%" horiz-adv-x="1865" d="M76 1087q-1 165 114 267q113 98 289 98t289 -98q115 -102 115 -267q0 -164 -115 -266q-113 -100 -289 -100t-289 100q-115 102 -114 266zM297 1087q0 -80 53 -129q51 -47 129 -47q82 0 133 47q51 49 52 129q0 78 -54 127q-51 47 -131 48q-78 0 -129 -48q-53 -49 -53 -127 zM348 72l1034 1384l134 -100l-1033 -1379zM981 346q0 164 115 266q113 98 288 99q176 0 289 -99q115 -102 115 -266t-115 -266q-113 -100 -289 -100t-288 100q-115 102 -115 266zM1202 346q0 -80 53 -129q51 -47 129 -47q82 0 134 47q51 49 51 129q0 78 -53 127 q-51 47 -132 47q-78 0 -129 -47q-53 -49 -53 -127z" />
<glyph unicode="&#x26;" horiz-adv-x="1542" d="M123 389q0 162 94 287q68 86 223 194q-164 78 -164 275q0 141 103 229q98 82 237 82t238 -82q102 -88 102 -229q0 -94 -55 -174q-53 -78 -129 -103l279 -362q96 188 96 416h233q0 -352 -188 -605l248 -317h-293l-121 150q-156 -172 -422 -173q-215 0 -350 117 q-131 115 -131 295zM389 436q0 -94 66 -157q63 -66 157 -66q181 0 273 125l-291 397q-205 -166 -205 -299zM496 1145q-1 -49 34 -84t86 -35t86 35t35 84q0 51 -35 86q-37 35 -86 35q-51 0 -86 -35t-34 -86z" />
<glyph unicode="'" horiz-adv-x="512" d="M137 940v494h236v-494h-236z" />
<glyph unicode="(" horiz-adv-x="645" d="M82 461q0 508 416 882l145 -129q-326 -324 -326 -753q0 -451 328 -754l-149 -129q-414 356 -414 883z" />
<glyph unicode=")" horiz-adv-x="645" d="M0 -293q328 303 328 754q0 430 -326 753l145 129q416 -375 416 -882q0 -526 -413 -883z" />
<glyph unicode="*" horiz-adv-x="1105" d="M113 829q0 62 43 107q45 45 104 45q63 0 107 -45q45 -45 45 -107q0 -59 -45 -102q-43 -43 -107 -43q-59 0 -104 43q-43 43 -43 102zM113 1163q0 60 43 105q45 45 104 45q63 0 107 -45q45 -43 45 -105q0 -61 -45 -104q-43 -43 -107 -43q-59 0 -104 43q-43 43 -43 104z M403 680q0 61 43 106t105 45q59 0 104 -45q43 -45 43 -106q0 -59 -43 -102q-45 -43 -104 -43q-61 0 -105 43q-43 43 -43 102zM408 1307q0 61 43 104q45 43 106 43q59 0 105 -43q43 -45 43 -104q0 -61 -43 -107q-43 -43 -105 -43q-63 0 -106 43t-43 107zM694 829q0 62 45 107 t105 45q61 0 106 -45q43 -45 43 -107q0 -59 -43 -102q-45 -43 -106 -43q-59 0 -105 43q-45 43 -45 102zM694 1163q0 60 45 105t105 45q61 0 106 -45q43 -45 43 -105q0 -61 -43 -104q-45 -43 -106 -43t-105 43q-45 43 -45 104z" />
<glyph unicode="+" d="M135 635v205h363v370h221v-370h366v-205h-366v-375h-221v375h-363z" />
<glyph unicode="," horiz-adv-x="516" d="M96 131q0 150 158 150q82 0 131 -66q49 -63 49 -164q0 -272 -260 -348l-63 111q90 33 125 108q31 63 18 94q-12 -16 -53 -16t-72 37q-33 39 -33 94z" />
<glyph unicode="-" horiz-adv-x="770" d="M127 451v219h516v-219h-516z" />
<glyph unicode="." horiz-adv-x="497" d="M92 154q0 57 43 102q47 49 121 49q63 0 109 -49q41 -45 41 -102q0 -66 -41 -113q-45 -51 -109 -51q-74 0 -121 51q-43 47 -43 113z" />
<glyph unicode="/" horiz-adv-x="735" d="M-61 -358l675 1814l183 -67l-676 -1815z" />
<glyph unicode="0" horiz-adv-x="1134" d="M86 717q0 340 117 530q125 203 364 203q238 0 363 -203q117 -190 117 -530q0 -342 -115 -531q-123 -203 -361 -202q-240 0 -366 202q-119 190 -119 531zM338 717q0 -514 233 -514q121 0 174 125q51 119 52 389q0 268 -54 389q-53 123 -176 123q-229 0 -229 -512z" />
<glyph unicode="1" horiz-adv-x="796" d="M45 1163l367 275h170v-1438h-236v1102l-176 -133z" />
<glyph unicode="2" horiz-adv-x="1073" d="M76 0v188q291 287 385 402q211 258 211 438q0 186 -183 186q-158 0 -206 -192l-197 88q29 158 145 248q115 92 285 92q193 0 305 -117q100 -104 101 -258q0 -414 -541 -856h596v-219h-901z" />
<glyph unicode="3" horiz-adv-x="1085" d="M45 219l133 172q121 -178 307 -178q111 0 174 59q57 53 58 140q0 203 -266 202h-103v236h92q92 0 154 53q68 55 68 144q0 174 -183 174q-166 0 -270 -154l-131 166q119 223 424 223q186 0 299 -98t112 -266q0 -244 -219 -340v-7q131 -23 205 -118q70 -92 70 -224 q0 -195 -135 -311q-131 -115 -334 -115q-330 0 -455 242z" />
<glyph unicode="4" horiz-adv-x="1157" d="M31 332v174l553 928h270l-518 -867h350v355h236v-355h184v-235h-184v-332h-236v332h-655z" />
<glyph unicode="5" horiz-adv-x="1052" d="M45 182l135 178q100 -147 291 -147q102 0 170 68q66 68 66 174q0 111 -80 180q-84 74 -226 74q-150 0 -235 -37l94 762h678v-236h-471l-41 -285q45 8 82 9q195 0 321 -123q129 -127 129 -334q0 -225 -145 -361q-137 -127 -348 -127q-287 0 -420 205z" />
<glyph unicode="6" horiz-adv-x="1144" d="M92 508q0 364 236 643q203 240 469 305l96 -178q-416 -125 -522 -524q96 133 295 133q168 0 282 -121q119 -125 119 -317q0 -215 -145 -349q-133 -123 -318 -123q-233 0 -375 158q-137 150 -137 373zM342 506q0 -127 68 -207q72 -86 196 -86q94 0 156 68q55 61 55 151 q0 102 -59 168q-61 68 -172 68q-168 0 -244 -162z" />
<glyph unicode="7" horiz-adv-x="1017" d="M51 1198v236h901v-158l-508 -1276h-258l484 1198h-619z" />
<glyph unicode="8" horiz-adv-x="1228" d="M117 371q0 133 71 233q66 92 174 129v6q-205 88 -204 340q0 166 133 273q129 104 321 104q195 0 326 -104q133 -106 133 -273q0 -244 -221 -338v-6q111 -23 182 -112q78 -96 78 -232q0 -193 -143 -305q-137 -109 -353 -109q-215 1 -352 105q-145 111 -145 289zM369 416 q0 -88 63 -144q68 -59 180 -59q123 0 189 59q61 53 59 144q-2 96 -65 151q-61 51 -160 51h-35q-94 0 -162 -53q-70 -57 -69 -149zM408 1038q0 -74 51 -129q55 -55 137 -55h39q80 0 133 55q51 55 51 129q0 86 -57 136q-57 47 -152 47q-92 0 -147 -52q-55 -51 -55 -131z" />
<glyph unicode="9" horiz-adv-x="1136" d="M61 979q0 215 152 352q139 125 324 125q236 0 374 -153q133 -150 133 -394q0 -399 -213 -653q-203 -240 -522 -279l-78 187q446 90 535 500q-94 -129 -272 -129q-182 0 -308 127q-125 127 -125 317zM311 995q0 -98 64 -166q68 -74 176 -73q170 0 244 155q-1 131 -64 217 q-72 92 -194 93q-96 0 -162 -70q-63 -66 -64 -156z" />
<glyph unicode=":" horiz-adv-x="651" d="M168 154q0 57 43 102q47 49 121 49q63 0 108 -49q41 -45 41 -102q0 -66 -41 -113q-45 -51 -108 -51q-74 0 -121 51q-43 47 -43 113zM168 793q0 57 43 102q47 49 121 49q63 0 108 -49q41 -45 41 -102q0 -66 -41 -113q-45 -51 -108 -51q-74 0 -121 51q-43 47 -43 113z" />
<glyph unicode=";" horiz-adv-x="663" d="M168 793q0 57 43 102q47 49 121 49q63 0 108 -49q41 -45 41 -102q0 -66 -41 -113q-45 -51 -108 -51q-74 0 -121 51q-43 47 -43 113zM170 131q0 150 158 150q82 0 131 -66q49 -63 49 -164q0 -272 -260 -348l-64 111q90 33 125 108q31 63 19 94q-12 -16 -54 -16 q-41 0 -71 37q-33 39 -33 94z" />
<glyph unicode="&#x3c;" d="M100 690v101l951 550v-254l-627 -346l627 -350v-256z" />
<glyph unicode="=" d="M135 440v205h950v-205h-950zM135 829v205h950v-205h-950z" />
<glyph unicode="&#x3e;" d="M168 135v256l629 350l-629 346v254l952 -550v-101z" />
<glyph unicode="?" horiz-adv-x="968" d="M82 1247q129 209 405 209q199 0 318 -106q113 -100 113 -254q0 -215 -201 -379q-104 -84 -131 -117q-53 -68 -39 -154l-215 -2q-33 195 145 334q104 82 127 109q61 70 62 157q-1 74 -56 125t-137 52q-152 0 -252 -131zM287 154q0 57 43 102q47 49 119 49q66 0 110 -49 q41 -45 41 -102q0 -66 -41 -113q-45 -51 -110 -51q-72 0 -119 51q-43 47 -43 113z" />
<glyph unicode="@" horiz-adv-x="2039" d="M117 461q0 381 262 639q266 262 661 262q381 0 629 -219q252 -225 252 -584q0 -223 -115 -381q-129 -170 -344 -178h-235v74q-102 -96 -254 -97q-207 0 -330 134q-123 133 -123 350q0 205 148 342q152 141 381 141q238 0 413 -110v-615h41q86 0 142 92q57 94 57 248 q0 246 -176 412q-186 172 -486 172q-299 0 -495 -182q-207 -190 -207 -500q0 -295 207 -492q201 -190 495 -190q117 0 222 24l10 -219q-119 -27 -232 -26q-399 0 -661 256q-262 254 -262 647zM772 451q0 -119 68 -189q66 -66 176 -65q123 0 211 96v385q-94 45 -180 45 q-129 0 -205 -82q-70 -76 -70 -190z" />
<glyph unicode="A" horiz-adv-x="1464" d="M14 0l607 1438h221l606 -1438h-268l-150 367h-612l-150 -367h-254zM514 602h420l-209 510z" />
<glyph unicode="B" horiz-adv-x="1263" d="M199 2v1428q201 10 413 10q471 0 471 -355q0 -229 -204 -325v-4q251 -61 251 -332q0 -215 -151 -328q-141 -104 -381 -104q-260 0 -399 10zM451 238q88 -10 165 -11q262 0 263 207q0 182 -250 182h-178v-378zM451 836h170q94 0 149 47q63 49 64 143q0 178 -226 178 q-89 0 -157 -6v-362z" />
<glyph unicode="C" horiz-adv-x="1341" d="M92 717q0 322 189 524q201 215 544 215q276 0 437 -145l-113 -187q-143 96 -324 97q-203 0 -333 -136q-133 -139 -134 -368q0 -223 138 -365q139 -139 358 -139q190 0 340 115l96 -189q-152 -162 -459 -162q-330 0 -534 203q-205 203 -205 537z" />
<glyph unicode="D" horiz-adv-x="1517" d="M199 0v1434l422 6q406 0 618 -213q186 -186 186 -496q0 -319 -204 -518q-223 -217 -617 -217zM451 236q70 -4 161 -5q256 0 404 138q143 133 143 362q0 219 -143 344q-145 129 -400 129q-79 0 -165 -6v-962z" />
<glyph unicode="E" horiz-adv-x="1177" d="M199 0v1434h829v-236h-577v-356h516v-236h-516v-370h598v-236h-850z" />
<glyph unicode="F" horiz-adv-x="1099" d="M199 0v1434h819v-236h-567v-405h505v-236h-505v-557h-252z" />
<glyph unicode="G" horiz-adv-x="1488" d="M92 717q0 315 193 524q201 215 522 215q276 0 461 -145l-107 -201q-117 111 -323 111q-213 0 -344 -131q-135 -137 -136 -373q0 -227 134 -367q133 -137 352 -137q195 0 297 98v226h-346v235h581v-594q-201 -201 -536 -201q-348 0 -549 203q-199 199 -199 537z" />
<glyph unicode="H" horiz-adv-x="1554" d="M199 0v1434h252v-586h655v586h250v-1434h-250v612h-655v-612h-252z" />
<glyph unicode="I" horiz-adv-x="710" d="M229 0v1434h252v-1434h-252z" />
<glyph unicode="J" horiz-adv-x="798" d="M10 66l82 192q59 -45 127 -45q129 0 129 168v1053h252v-1096q0 -360 -346 -361q-168 0 -244 89z" />
<glyph unicode="K" horiz-adv-x="1376" d="M199 0v1434h252v-680l565 680h303l-590 -668l627 -766h-320l-585 739v-739h-252z" />
<glyph unicode="L" horiz-adv-x="1120" d="M199 0v1434h252v-1198h645v-236h-897z" />
<glyph unicode="M" horiz-adv-x="1845" d="M199 0v1434h254l489 -670l467 670h238v-1434h-250v1036l-453 -637h-37l-456 631v-1030h-252z" />
<glyph unicode="N" horiz-adv-x="1622" d="M199 0v1434h200l789 -998v998h235v-1434h-200l-789 993v-993h-235z" />
<glyph unicode="O" horiz-adv-x="1677" d="M92 717q0 315 207 526q213 213 539 213q324 0 534 -203q213 -207 213 -536q0 -322 -213 -531t-534 -209q-324 0 -533 203q-213 207 -213 537zM358 717q1 -216 140 -359q137 -145 340 -145q221 0 354 145q127 141 127 359q0 221 -139 362q-137 141 -342 142 q-207 0 -342 -142q-137 -141 -138 -362z" />
<glyph unicode="P" horiz-adv-x="1253" d="M199 0v1434l407 4q293 0 436 -142q119 -119 119 -319q0 -195 -133 -324q-145 -141 -391 -141q-125 0 -186 6v-518h-252zM451 758q98 -10 178 -10q119 0 188 55q78 61 78 176q0 223 -264 223q-45 0 -180 -4v-440z" />
<glyph unicode="Q" horiz-adv-x="1677" d="M92 717q0 315 207 526q213 213 539 213q324 0 534 -203q213 -207 213 -536q0 -305 -196 -512l176 -205h-293l-60 68q-164 -90 -374 -91q-324 0 -533 203q-213 207 -213 537zM358 717q1 -216 140 -359q137 -145 340 -145q115 0 215 45l-121 141l164 148l127 -150 q96 135 96 320q0 221 -139 362q-137 141 -342 142q-207 0 -342 -142q-137 -141 -138 -362z" />
<glyph unicode="R" horiz-adv-x="1347" d="M199 0v1434l436 4q520 0 520 -443q0 -166 -94 -280q-74 -92 -182 -129l448 -586h-305l-395 537h-176v-537h-252zM451 772h163q117 0 193 55q82 61 82 166q0 209 -266 209q-37 0 -172 -4v-426z" />
<glyph unicode="S" horiz-adv-x="1132" d="M92 203l144 172q125 -162 329 -162q92 0 150 43q59 45 59 125q0 92 -102 160q-31 20 -221 110q-154 72 -224 146q-102 106 -102 264q0 168 119 278q125 117 327 117q270 0 410 -153l-135 -189q-111 106 -254 107q-92 0 -148 -43q-53 -43 -53 -115q0 -96 103 -164 q33 -23 223 -108q152 -70 221 -142q102 -104 102 -266q0 -178 -139 -293q-135 -113 -340 -113q-147 0 -276 58q-143 63 -193 168z" />
<glyph unicode="T" horiz-adv-x="1222" d="M20 1198v236h1182v-236h-465v-1198h-252v1198h-465z" />
<glyph unicode="U" horiz-adv-x="1538" d="M178 608v826h252v-772q0 -449 358 -449q319 0 320 432v789h250v-840q0 -309 -172 -473q-152 -143 -398 -144q-276 0 -438 158q-172 168 -172 473z" />
<glyph unicode="V" horiz-adv-x="1343" d="M-6 1434h268l426 -1063l408 1063h252l-574 -1438h-190z" />
<glyph unicode="W" horiz-adv-x="2017" d="M10 1434h283l289 -1022l319 1022h250l328 -1024l286 1024h242l-410 -1434h-235l-346 1036l-340 -1036h-238z" />
<glyph unicode="X" horiz-adv-x="1370" d="M20 0l502 731l-479 703h295l352 -519l346 519h295l-483 -703l502 -731h-295l-371 539l-369 -539h-295z" />
<glyph unicode="Y" horiz-adv-x="1288" d="M10 1434h287l356 -600l353 600h272l-510 -836v-598h-252v598z" />
<glyph unicode="Z" horiz-adv-x="1314" d="M82 0v172l792 1026h-751v236h1089v-174l-794 -1024h815v-236h-1151z" />
<glyph unicode="[" horiz-adv-x="716" d="M123 -410v1741h563v-221h-328v-1300h328v-220h-563z" />
<glyph unicode="\" horiz-adv-x="735" d="M-61 1389l180 67l678 -1814l-185 -68z" />
<glyph unicode="]" horiz-adv-x="716" d="M31 -190h327v1300h-327v221h563v-1741h-563v220z" />
<glyph unicode="^" horiz-adv-x="1038" d="M61 922l379 528h162l375 -528h-256l-201 292l-205 -292h-254z" />
<glyph unicode="_" horiz-adv-x="704" d="M0 -174h705v-236h-705v236z" />
<glyph unicode="`" horiz-adv-x="645" d="M123 1352l186 139l213 -334l-139 -98z" />
<glyph unicode="a" horiz-adv-x="948" d="M72 270q0 145 98 226q89 73 234 73h4q127 0 208 -59q1 12 1 24q0 214 -173 214q-102 0 -241 -64l-60 172q150 88 326 88q369 0 369 -383v-561h-205v106q-83 -118 -270 -118h-3q-129 0 -206 73q-82 78 -82 209zM307 295q0 -109 131 -109q119 0 178 84v95q-59 45 -161 45 q-147 0 -148 -115z" />
<glyph unicode="b" horiz-adv-x="1122" d="M131 80v1354h236v-570q102 80 243 80q203 0 322 -133q117 -127 117 -336q0 -227 -142 -362q-143 -135 -385 -136q-229 0 -391 103zM367 244q74 -47 168 -47q115 0 186 69q76 72 76 193q0 127 -72 198q-66 66 -170 66q-112 0 -188 -88v-391z" />
<glyph unicode="c" horiz-adv-x="997" d="M74 461q0 205 133 342q137 141 344 141q246 0 371 -125l-111 -186q-92 90 -229 90q-102 0 -176 -70q-80 -76 -80 -192q0 -119 82 -193q75 -71 181 -71h3q135 0 237 112l111 -172q-119 -160 -367 -160q-225 0 -362 134q-137 133 -137 350z" />
<glyph unicode="d" horiz-adv-x="1138" d="M74 451q0 217 141 356q141 137 365 137q117 0 192 -45v535h236v-1434h-236v96q-105 -112 -261 -112h-3q-197 0 -315 129q-119 127 -119 338zM326 459q0 -119 69 -189q62 -67 159 -67h3q121 0 215 94v371q-88 55 -182 55q-111 0 -184 -68q-80 -74 -80 -196z" />
<glyph unicode="e" horiz-adv-x="1056" d="M74 461q0 207 131 342q135 141 356 141q182 0 307 -117q129 -123 129 -311q0 -78 -14 -127h-666q31 -215 277 -215q156 0 260 84l68 -166q-135 -115 -353 -115q-223 0 -358 134q-137 133 -137 350zM309 547h453v6q0 82 -53 137q-59 57 -158 58q-201 0 -242 -201z" />
<glyph unicode="f" horiz-adv-x="665" d="M141 0v1071q0 385 328 385q176 0 258 -86l-80 -180q-45 45 -135 45q-135 0 -135 -182v-131h250v-222h-250v-700h-236z" />
<glyph unicode="g" horiz-adv-x="1021" d="M10 -125q0 222 299 285q-16 29 -16 63q0 39 20 66q-219 86 -219 309q0 143 105 242q113 104 288 104q133 0 236 -65l278 61l9 -188l-154 -35q23 -57 23 -119q0 -141 -107 -240q-111 -100 -285 -100h-16q-4 -12 -4 -35q0 -25 12 -47h10q213 0 340 -74q139 -78 140 -227 q0 -150 -140 -227q-127 -74 -340 -74q-215 0 -339 72q-139 78 -140 229zM229 -125q0 -113 260 -113q258 0 259 113q0 113 -259 113q-260 0 -260 -113zM315 598q0 -65 47 -106q47 -43 125 -43q76 0 123 40q49 41 49 109t-45 111q-47 45 -127 45q-78 0 -125 -47 q-47 -43 -47 -109z" />
<glyph unicode="h" horiz-adv-x="1118" d="M131 0v1434h236v-596q104 100 264 100q379 0 379 -403v-535h-236v504q0 213 -205 213q-119 0 -202 -84v-633h-236z" />
<glyph unicode="i" horiz-adv-x="567" d="M141 1253q0 62 43 101q43 37 105 37q53 0 92 -37q43 -39 43 -101q0 -68 -43 -108q-39 -39 -92 -39q-63 0 -105 39q-43 41 -43 108zM166 0v922h235v-922h-235z" />
<glyph unicode="j" horiz-adv-x="581" d="M-100 -360l63 186q53 -33 105 -33q111 0 110 160v969h236v-990q0 -358 -289 -358q-152 0 -225 66zM156 1253q0 62 43 101q43 37 104 37q53 0 92 -37q43 -39 43 -101q0 -68 -43 -108q-39 -39 -92 -39q-63 0 -104 39q-43 41 -43 108z" />
<glyph unicode="k" horiz-adv-x="1052" d="M131 0v1434h236v-1434h-236zM371 481l329 441h297l-346 -422l387 -500h-303z" />
<glyph unicode="l" horiz-adv-x="612" d="M131 254v1180h236v-1084q0 -149 78 -149h1q45 0 97 37l49 -181q-95 -77 -240 -77h-4q-217 0 -217 274z" />
<glyph unicode="m" horiz-adv-x="1638" d="M131 0v922h236v-103q106 119 288 119q211 0 269 -147q113 147 311 147q295 0 295 -336v-602h-236v541q0 176 -157 176q-135 0 -191 -107l2 -30v-580h-235v557q0 160 -154 160q-127 0 -192 -99v-618h-236z" />
<glyph unicode="n" horiz-adv-x="1118" d="M131 0v922h236v-93q100 109 264 109q379 0 379 -397v-541h-236v500q0 217 -207 217q-113 0 -200 -88v-629h-236z" />
<glyph unicode="o" horiz-adv-x="1150" d="M74 461q0 211 137 346q139 137 364 137t365 -137q137 -135 137 -346t-137 -346q-139 -137 -365 -138q-225 0 -364 138q-137 135 -137 346zM326 461q-1 -115 71 -191q69 -73 175 -73h3q111 0 181 71q71 73 71 190q0 118 -71 193q-72 72 -181 72q-106 0 -176 -72 q-74 -74 -73 -190z" />
<glyph unicode="p" horiz-adv-x="1142" d="M131 -410v1332h236v-88q101 110 281 110h3q188 0 305 -133q113 -129 113 -336q0 -215 -133 -354q-137 -143 -354 -144q-137 0 -215 46v-433h-236zM367 250q82 -53 194 -53q119 0 191 77q67 75 67 192q0 116 -61 185q-66 72 -180 72q-121 0 -211 -100v-373z" />
<glyph unicode="q" horiz-adv-x="1144" d="M74 461q0 205 147 342q152 141 381 141q238 0 414 -110v-1244h-236v457q-109 -70 -227 -70q-219 0 -350 134q-129 131 -129 350zM395 268q71 -71 186 -71h3q118 0 196 84v397q-94 45 -180 45q-129 0 -205 -82q-69 -75 -69 -187q0 -114 69 -186z" />
<glyph unicode="r" horiz-adv-x="724" d="M131 0v922h236v-91q78 106 211 107q96 0 143 -35l-84 -221q-59 35 -119 35q-102 0 -151 -99v-618h-236z" />
<glyph unicode="s" horiz-adv-x="909" d="M76 135l114 154q106 -115 287 -115q121 0 121 86q0 47 -78 80q-27 10 -80 25l-90 26q-250 82 -250 273q0 131 99 208q92 72 239 72q225 0 350 -117l-88 -168q-113 88 -249 89q-51 0 -84 -25q-31 -23 -31 -55q0 -49 78 -80l172 -53q248 -78 248 -263q0 -135 -103 -215 q-100 -80 -270 -80q-119 0 -240 56q-111 47 -145 102z" />
<glyph unicode="t" horiz-adv-x="737" d="M111 350v828h235v-256h297v-222h-297v-335q0 -166 111 -166q70 0 141 53l72 -182q-111 -90 -273 -90q-287 0 -286 370z" />
<glyph unicode="u" horiz-adv-x="1095" d="M111 358v564h235v-514q0 -211 176 -211q121 0 207 112v613h236v-922h-236v113q-111 -135 -295 -136q-143 0 -229 93q-94 100 -94 288z" />
<glyph unicode="v" horiz-adv-x="985" d="M-6 922h280l170 -396q45 -100 70 -209q27 115 68 213l159 392h248l-397 -926h-174z" />
<glyph unicode="w" horiz-adv-x="1476" d="M10 922h252l148 -502q8 -25 26 -123q27 98 35 123l172 502h209l178 -500q14 -41 35 -127q8 43 29 133l135 494h237l-290 -926h-211l-197 512v-1q1 0 -31 109q-12 -59 -32 -112l-195 -508h-201z" />
<glyph unicode="x" horiz-adv-x="1069" d="M35 0l327 469l-307 453h289l195 -306l200 306h273l-307 -441l327 -481h-287l-215 332l-223 -332h-272z" />
<glyph unicode="y" horiz-adv-x="1030" d="M10 922h283l215 -504q12 -29 45 -133q16 90 33 135l166 502h268l-363 -922q-98 -240 -178 -328q-74 -82 -178 -82q-100 0 -199 72l76 178q55 -33 96 -33q84 0 142 144l20 49z" />
<glyph unicode="z" horiz-adv-x="1003" d="M86 0v170l500 530h-469v222h798v-170l-499 -533h489v-219h-819z" />
<glyph unicode="{" horiz-adv-x="741" d="M41 358v205q72 0 121 45q63 57 63 180v230q0 162 72 235q76 78 250 78h153v-221h-94q-82 0 -112 -37q-33 -37 -33 -137v-240q0 -213 -154 -233q154 -18 154 -234v-243q0 -94 37 -136q35 -41 120 -40h82v-220h-168q-307 0 -307 299v269q0 205 -184 200z" />
<glyph unicode="|" horiz-adv-x="696" d="M229 0v1434h236v-1434h-236z" />
<glyph unicode="}" horiz-adv-x="741" d="M41 -190h82q86 0 123 40q35 41 35 136v243q0 215 153 234q-154 20 -153 233v240q0 100 -33 137q-31 37 -113 37h-94v221h154q176 0 251 -78q70 -74 70 -235v-230q0 -123 66 -180q47 -45 118 -45v-205q-184 4 -184 -200v-269q0 -299 -305 -299h-170v220z" />
<glyph unicode="~" d="M86 741q143 164 299 164q86 0 242 -69q158 -70 235 -70q98 0 180 92l93 -162q-143 -135 -275 -135q-84 0 -237 70q-154 70 -224 69q-100 0 -211 -110z" />
<glyph unicode="&#xa1;" horiz-adv-x="634" d="M162 780q0 66 41 113q45 51 108 51q74 0 121 -51q43 -47 43 -113q0 -57 -43 -102q-47 -49 -121 -49q-63 0 -108 49q-41 45 -41 102zM193 438h249v-938h-249v938z" />
<glyph unicode="&#xa2;" d="M178 461q0 172 98 303q100 129 263 166v225h235v-219q158 -27 252 -117l-111 -186q-92 90 -229 90q-102 0 -176 -70q-80 -76 -80 -192q0 -119 82 -193q76 -72 184 -71q135 0 238 112l110 -172q-92 -121 -270 -151v-232h-235v240q-168 37 -263 160q-98 125 -98 307z" />
<glyph unicode="&#xa3;" d="M63 174q84 98 193 137q94 123 96 232h-213v188h164q-109 231 -108 324q0 170 129 280q131 115 333 115q254 0 402 -162l-129 -184q-119 111 -262 110q-90 0 -150 -51q-57 -51 -57 -127q0 33 117 -305h307v-188h-287q-14 -109 -113 -221q27 -6 181 -58q109 -37 180 -37 q125 0 221 92l104 -184q-139 -143 -329 -143q-78 0 -234 53q-154 53 -233 53q-104 0 -217 -112z" />
<glyph unicode="&#xa4;" d="M47 285l162 161q-70 113 -70 254q0 143 72 256l-158 162l144 144l159 -162q111 66 254 65q141 0 252 -65l166 164l143 -144l-161 -162q74 -119 73 -258q0 -141 -71 -254l157 -155l-145 -146l-158 158q-109 -68 -256 -67q-147 0 -256 67l-161 -164zM358 700 q0 -110 68 -182q70 -78 184 -78q119 0 189 78q63 72 63 182q0 117 -67 189q-68 72 -185 72q-115 0 -184 -72q-68 -72 -68 -189z" />
<glyph unicode="&#xa5;" d="M23 1434h286l309 -600l308 600h272l-360 -646h247v-190h-352v-168h352v-190h-352v-240h-250v240h-348v190h348v168h-348v190h242z" />
<glyph unicode="&#xa6;" horiz-adv-x="696" d="M229 0v532h236v-532h-236zM229 901v533h236v-533h-236z" />
<glyph unicode="&#xa7;" horiz-adv-x="1073" d="M117 510q0 268 250 354q-147 94 -148 277q0 123 90 205q96 88 260 88q184 0 295 -144l-141 -157q-72 80 -145 79q-49 0 -86 -34q-37 -35 -37 -84q0 -121 147 -207q168 -18 262 -125q90 -102 90 -252q0 -270 -247 -354q141 -96 141 -273q0 -125 -88 -205q-96 -88 -262 -88 q-182 0 -293 144l141 157q74 -82 143 -81q51 0 86 36q37 35 37 84q0 121 -145 203q-166 18 -260 127q-90 100 -90 250zM352 510q0 -70 47 -119q51 -57 138 -57q88 0 139 55q43 49 43 121q0 70 -45 121q-51 55 -137 55q-84 0 -138 -55q-47 -51 -47 -121z" />
<glyph unicode="&#xa8;" horiz-adv-x="907" d="M123 1227q0 59 39 96q39 35 94 35q49 0 84 -35q39 -37 39 -96q0 -63 -39 -103q-35 -35 -84 -34q-55 0 -94 34q-39 39 -39 103zM530 1227q0 59 39 96q37 35 93 35q49 0 86 -35q37 -37 36 -96q0 -63 -36 -103q-35 -35 -86 -34q-55 0 -93 34q-39 39 -39 103z" />
<glyph unicode="&#xa9;" horiz-adv-x="2084" d="M147 453q1 374 259 634q258 258 636 259q379 0 637 -259q256 -258 256 -634q0 -377 -256 -635q-258 -260 -637 -260t-636 260q-258 258 -259 635zM352 451q0 -287 197 -486q199 -203 495 -203q293 0 492 203q195 199 195 486q0 289 -195 487q-199 203 -492 203 q-297 0 -495 -203q-197 -199 -197 -487zM557 461q0 205 133 342q137 141 344 141q246 0 371 -125l-111 -186q-92 90 -229 90q-102 0 -176 -70q-80 -76 -80 -192q0 -119 82 -193q76 -72 184 -71q135 0 238 112l110 -172q-119 -160 -366 -160q-225 0 -363 134 q-137 133 -137 350z" />
<glyph unicode="&#xaa;" horiz-adv-x="911" d="M92 842q0 238 264 237q129 0 217 -43q-8 137 -149 138q-104 0 -176 -41l-82 137q127 78 299 78q131 0 217 -68q96 -76 96 -211v-440h-205v88q-84 -98 -254 -99q-102 0 -165 66q-61 63 -62 158zM311 864q0 -72 113 -71q73 0 149 51v63q-76 29 -145 29q-117 0 -117 -72z " />
<glyph unicode="&#xab;" horiz-adv-x="1148" d="M76 508v8l403 463l154 -137l-285 -330l283 -334l-160 -133zM506 508v8l403 463l154 -137l-285 -330l283 -334l-160 -133z" />
<glyph unicode="&#xac;" d="M104 635v205h1012v-473h-205v268h-807z" />
<glyph unicode="&#xad;" horiz-adv-x="770" d="M127 451v219h516v-219h-516z" />
<glyph unicode="&#xae;" horiz-adv-x="1357" d="M92 1018q0 244 172 414q170 170 418 170q242 0 412 -170q172 -172 172 -414q0 -246 -172 -418q-170 -172 -412 -172q-248 0 -418 172q-172 170 -172 418zM281 1016q-1 -164 116 -281t281 -117t280 117q117 117 117 281t-117 280q-117 117 -280 117q-164 0 -281 -117 t-116 -280zM453 737v574h239q233 0 234 -191q0 -127 -109 -166l119 -217h-182l-88 181h-56v-181h-157zM610 1030h60q96 0 96 88q0 80 -96 80h-60v-168z" />
<glyph unicode="&#xaf;" horiz-adv-x="817" d="M123 1126v189h571v-189h-571z" />
<glyph unicode="&#xb0;" horiz-adv-x="870" d="M92 1163q1 148 101 248q98 98 239 98q145 0 244 -92q102 -96 102 -241t-102 -250q-100 -102 -244 -103q-141 0 -239 99q-100 98 -101 241zM297 1167q0 -57 41 -98t96 -41q57 0 98 41t41 98t-41 97q-41 41 -98 41q-55 0 -96 -41q-41 -39 -41 -97z" />
<glyph unicode="&#xb1;" d="M135 317v205h950v-205h-950zM135 823v205h363v371h221v-371h366v-205h-366v-211h-221v211h-363z" />
<glyph unicode="&#xb2;" horiz-adv-x="743" d="M61 717v149q373 223 373 322q0 80 -88 80q-41 0 -74 -33q-31 -31 -36 -70l-170 60q37 217 301 217q137 0 215 -64q72 -61 71 -164q0 -188 -325 -323h358v-174h-625z" />
<glyph unicode="&#xb3;" horiz-adv-x="739" d="M35 856l119 109q51 -94 170 -95q125 0 125 72q0 66 -121 66h-62v143h58q98 0 98 70q0 59 -92 59q-106 0 -174 -84l-99 113q90 137 314 137q121 0 194 -49q78 -49 78 -133q0 -135 -158 -168v-2q182 -12 183 -170q0 -98 -93 -162q-88 -57 -217 -57q-239 -1 -323 151z" />
<glyph unicode="&#xb4;" horiz-adv-x="645" d="M123 1157l215 338l184 -139l-258 -297z" />
<glyph unicode="&#xb6;" horiz-adv-x="1005" d="M76 985q0 205 129 330q127 119 325 119h424v-222h-192v-1196q0 -442 -383 -442q-170 0 -266 100l92 170q68 -51 157 -51q164 0 164 232v514q-184 2 -313 118q-137 125 -137 328z" />
<glyph unicode="&#xb7;" horiz-adv-x="434" d="M59 618q0 58 43 103q47 49 121 49q63 0 109 -49q41 -45 41 -103q0 -66 -41 -112q-45 -51 -109 -51q-74 0 -121 51q-43 47 -43 112z" />
<glyph unicode="&#xb8;" horiz-adv-x="774" d="M123 -340l70 111q68 -53 143 -54q80 0 80 52q0 57 -84 57h-13v174h119v-72q213 -12 213 -174q0 -82 -71 -129q-76 -51 -211 -51q-129 0 -246 86z" />
<glyph unicode="&#xb9;" horiz-adv-x="550" d="M33 1278l231 154h148v-715h-205v479l-98 -57z" />
<glyph unicode="&#xba;" horiz-adv-x="1021" d="M106 983q0 164 115 266q113 98 289 99q176 0 289 -99q115 -102 114 -266q0 -164 -114 -266q-113 -100 -289 -101q-176 0 -289 101q-115 102 -115 266zM328 983q0 -80 53 -129q51 -47 129 -47q82 0 133 47q51 49 51 129q0 78 -53 127q-51 47 -131 47q-78 0 -129 -47 q-53 -49 -53 -127z" />
<glyph unicode="&#xbb;" horiz-adv-x="1148" d="M86 842l154 137l403 -463v-8l-395 -463l-160 133l283 334zM516 842l154 137l403 -463v-8l-395 -463l-160 133l283 334z" />
<glyph unicode="&#xbc;" horiz-adv-x="1419" d="M43 1278l231 154h148v-715h-205v479l-98 -57zM92 72l1034 1384l134 -100l-1033 -1379zM680 143v138l317 436h195l-303 -414h186v158h189v-158h114v-160h-114v-143h-189v143h-395z" />
<glyph unicode="&#xbd;" horiz-adv-x="1454" d="M43 1278l231 154h148v-715h-205v479l-98 -57zM72 72l1034 1384l133 -100l-1032 -1379zM748 0v150q373 223 372 321q0 80 -88 80q-41 0 -74 -33q-31 -31 -36 -69l-170 59q37 217 301 217q137 0 215 -63q72 -61 71 -164q0 -188 -325 -324h358v-174h-624z" />
<glyph unicode="&#xbe;" horiz-adv-x="1542" d="M49 856l119 109q51 -94 170 -95q125 0 125 72q0 66 -121 66h-61v143h57q98 0 98 70q0 59 -92 59q-106 0 -174 -84l-98 113q90 137 313 137q121 0 195 -49q78 -49 77 -133q0 -135 -157 -168v-2q182 -12 182 -170q0 -98 -92 -162q-88 -57 -217 -57q-240 -1 -324 151z M236 72l1034 1384l133 -100l-1032 -1379zM803 143v138l317 436h195l-303 -414h186v158h188v-158h115v-160h-115v-143h-188v143h-395z" />
<glyph unicode="&#xbf;" horiz-adv-x="968" d="M51 -162q0 215 201 379q104 84 131 117q53 68 39 153l215 2q33 -195 -145 -333q-104 -82 -127 -109q-61 -70 -62 -158q0 -74 55 -125t138 -51q152 0 252 131l139 -157q-129 -209 -406 -209q-199 0 -317 106q-113 100 -113 254zM369 780q0 66 43 113q43 51 108 51 q72 0 119 -51q43 -47 43 -113q0 -57 -43 -102q-47 -49 -119 -49q-66 0 -108 49q-43 45 -43 102z" />
<glyph unicode="&#xc0;" horiz-adv-x="1464" d="M14 0l607 1438h221l606 -1438h-268l-150 367h-612l-150 -367h-254zM379 1663l88 203l438 -228l-65 -141zM514 602h420l-209 510z" />
<glyph unicode="&#xc1;" horiz-adv-x="1464" d="M14 0l607 1438h221l606 -1438h-268l-150 367h-612l-150 -367h-254zM514 602h420l-209 510zM557 1638l438 228l88 -203l-460 -166z" />
<glyph unicode="&#xc2;" horiz-adv-x="1464" d="M14 0l607 1438h221l606 -1438h-268l-150 367h-612l-150 -367h-254zM365 1622l358 229h8l367 -227l-92 -133l-279 145l-278 -145zM514 602h420l-209 510z" />
<glyph unicode="&#xc3;" horiz-adv-x="1464" d="M14 0l607 1438h221l606 -1438h-268l-150 367h-612l-150 -367h-254zM360 1692q96 111 230 110q63 0 151 -35q88 -37 142 -36q94 0 155 65l64 -149q-84 -121 -236 -121q-51 0 -143 37q-94 35 -154 34q-68 0 -135 -55zM514 602h420l-209 510z" />
<glyph unicode="&#xc4;" horiz-adv-x="1464" d="M14 0l607 1438h221l606 -1438h-268l-150 367h-612l-150 -367h-254zM342 1690q0 57 47 94q43 33 111 33q59 0 100 -33q45 -37 45 -94q0 -63 -45 -101q-41 -35 -100 -35q-68 0 -111 35q-47 37 -47 101zM514 602h420l-209 510zM817 1690q0 57 47 94q43 33 111 33 q59 0 100 -33q45 -37 45 -94q0 -63 -45 -101q-41 -35 -100 -35q-68 0 -111 35q-47 37 -47 101z" />
<glyph unicode="&#xc5;" horiz-adv-x="1464" d="M14 0l602 1427q-174 49 -174 211q0 111 84 168q76 53 201 54q129 0 207 -54q86 -57 86 -168q0 -162 -174 -211l602 -1427h-268l-150 367h-612l-150 -367h-254zM514 602h420l-209 510zM616 1638q0 -96 113 -96q117 0 117 96q0 92 -117 93q-113 0 -113 -93z" />
<glyph unicode="&#xc6;" horiz-adv-x="1947" d="M-57 0l1030 1434h825v-236h-577v-356h516v-236h-516v-370h598v-236h-850v371h-477l-259 -371h-290zM657 606h312v447z" />
<glyph unicode="&#xc7;" horiz-adv-x="1341" d="M92 717q0 322 189 524q201 215 544 215q276 0 437 -145l-113 -187q-143 96 -324 97q-203 0 -333 -136q-133 -139 -134 -368q0 -223 138 -365q139 -139 358 -139q190 0 340 115l96 -189q-145 -156 -440 -162v-49q227 -12 227 -174q0 -80 -71 -129q-74 -51 -201 -51 q-166 0 -285 92l76 119q82 -68 152 -68q80 0 79 52q0 57 -84 57h-12v158q-289 31 -463 227q-176 199 -176 506z" />
<glyph unicode="&#xc8;" horiz-adv-x="1177" d="M199 0v1434h829v-236h-577v-356h516v-236h-516v-370h598v-236h-850zM281 1663l88 203l438 -228l-66 -141z" />
<glyph unicode="&#xc9;" horiz-adv-x="1177" d="M199 0v1434h829v-236h-577v-356h516v-236h-516v-370h598v-236h-850zM444 1638l439 228l88 -203l-461 -166z" />
<glyph unicode="&#xca;" horiz-adv-x="1177" d="M199 0v1434h829v-236h-577v-356h516v-236h-516v-370h598v-236h-850zM248 1622l358 229h8l367 -227l-92 -133l-279 145l-278 -145z" />
<glyph unicode="&#xcb;" horiz-adv-x="1177" d="M199 0v1434h829v-236h-577v-356h516v-236h-516v-370h598v-236h-850zM231 1690q1 57 48 94q43 33 110 33q59 0 100 -33q45 -37 46 -94q0 -63 -46 -101q-41 -35 -100 -35q-68 0 -110 35q-47 37 -48 101zM707 1690q0 57 47 94q43 33 110 33q59 0 101 -33q45 -37 45 -94 q0 -63 -45 -101q-41 -35 -101 -35q-68 0 -110 35q-47 37 -47 101z" />
<glyph unicode="&#xcc;" horiz-adv-x="710" d="M-16 1663l88 203l438 -228l-66 -141zM229 0v1434h252v-1434h-252z" />
<glyph unicode="&#xcd;" horiz-adv-x="710" d="M205 1638l438 228l88 -203l-461 -166zM229 0v1434h252v-1434h-252z" />
<glyph unicode="&#xce;" horiz-adv-x="710" d="M-12 1622l358 229h8l367 -227l-92 -133l-279 145l-278 -145zM229 0v1434h252v-1434h-252z" />
<glyph unicode="&#xcf;" horiz-adv-x="710" d="M-35 1690q0 57 47 94q43 33 111 33q59 0 100 -33q45 -37 45 -94q0 -63 -45 -101q-41 -35 -100 -35q-68 0 -111 35q-47 37 -47 101zM229 0v1434h252v-1434h-252zM440 1690q0 57 47 94q43 33 111 33q59 0 100 -33q45 -37 45 -94q0 -63 -45 -101q-41 -35 -100 -35 q-68 0 -111 35q-47 37 -47 101z" />
<glyph unicode="&#xd0;" horiz-adv-x="1533" d="M20 608v221h195v605l422 6q406 0 618 -213q186 -186 187 -496q0 -319 -205 -518q-223 -217 -616 -217l-406 4v608h-195zM465 236q70 -4 164 -5q256 0 403 138q143 133 144 362q0 219 -144 344q-145 129 -399 129q-82 0 -168 -6v-369h362v-221h-362v-372z" />
<glyph unicode="&#xd1;" horiz-adv-x="1622" d="M199 0v1434h200l789 -998v998h235v-1434h-200l-789 993v-993h-235zM455 1692q96 111 229 110q63 0 152 -35q88 -37 141 -36q94 0 156 65l63 -149q-84 -121 -235 -121q-51 0 -144 37q-94 35 -153 34q-68 0 -136 -55z" />
<glyph unicode="&#xd2;" horiz-adv-x="1677" d="M92 717q0 315 207 526q213 213 539 213q324 0 534 -203q213 -207 213 -536q0 -322 -213 -531t-534 -209q-324 0 -533 203q-213 207 -213 537zM358 717q1 -216 140 -359q137 -145 340 -145q221 0 354 145q127 141 127 359q0 221 -139 362q-137 141 -342 142 q-207 0 -342 -142q-137 -141 -138 -362zM526 1663l88 203l439 -228l-66 -141z" />
<glyph unicode="&#xd3;" horiz-adv-x="1677" d="M92 717q0 315 207 526q213 213 539 213q324 0 534 -203q213 -207 213 -536q0 -322 -213 -531t-534 -209q-324 0 -533 203q-213 207 -213 537zM358 717q1 -216 140 -359q137 -145 340 -145q221 0 354 145q127 141 127 359q0 221 -139 362q-137 141 -342 142 q-207 0 -342 -142q-137 -141 -138 -362zM680 1638l438 228l88 -203l-461 -166z" />
<glyph unicode="&#xd4;" horiz-adv-x="1677" d="M92 717q0 315 207 526q213 213 539 213q324 0 534 -203q213 -207 213 -536q0 -322 -213 -531t-534 -209q-324 0 -533 203q-213 207 -213 537zM358 717q1 -216 140 -359q137 -145 340 -145q221 0 354 145q127 141 127 359q0 221 -139 362q-137 141 -342 142 q-207 0 -342 -142q-137 -141 -138 -362zM477 1622l359 229h8l366 -227l-92 -133l-278 145l-279 -145z" />
<glyph unicode="&#xd5;" horiz-adv-x="1677" d="M92 717q0 315 207 526q213 213 539 213q324 0 534 -203q213 -207 213 -536q0 -322 -213 -531t-534 -209q-324 0 -533 203q-213 207 -213 537zM358 717q1 -216 140 -359q137 -145 340 -145q221 0 354 145q127 141 127 359q0 221 -139 362q-137 141 -342 142 q-207 0 -342 -142q-137 -141 -138 -362zM459 1692q96 111 229 110q63 0 152 -35q88 -37 141 -36q94 0 156 65l63 -149q-84 -121 -235 -121q-51 0 -144 37q-94 35 -153 34q-68 0 -136 -55z" />
<glyph unicode="&#xd6;" horiz-adv-x="1677" d="M92 717q0 315 207 526q213 213 539 213q324 0 534 -203q213 -207 213 -536q0 -322 -213 -531t-534 -209q-324 0 -533 203q-213 207 -213 537zM358 717q1 -216 140 -359q137 -145 340 -145q221 0 354 145q127 141 127 359q0 221 -139 362q-137 141 -342 142 q-207 0 -342 -142q-137 -141 -138 -362zM442 1690q0 57 47 94q43 33 111 33q59 0 100 -33q45 -37 45 -94q0 -63 -45 -101q-41 -35 -100 -35q-68 0 -111 35q-47 37 -47 101zM918 1690q0 57 47 94q43 33 110 33q59 0 101 -33q45 -37 45 -94q0 -63 -45 -101q-41 -35 -101 -35 q-68 0 -110 35q-47 37 -47 101z" />
<glyph unicode="&#xd7;" d="M201 473l264 264l-262 262l145 146l262 -262l262 262l146 -146l-262 -262l264 -264l-146 -145l-264 264l-264 -264z" />
<glyph unicode="&#xd8;" horiz-adv-x="1677" d="M92 717q0 315 207 526q213 213 539 213q258 0 454 -139l82 80l135 -137l-77 -76q154 -197 153 -467q0 -322 -213 -531t-534 -209q-283 0 -480 156l-86 -84l-137 139l88 86q-131 186 -131 443zM358 717q1 -139 60 -252l692 674q-125 82 -272 82q-207 0 -342 -142 q-137 -141 -138 -362zM545 315q125 -102 293 -102q221 0 354 145q127 141 127 359q0 155 -76 280z" />
<glyph unicode="&#xd9;" horiz-adv-x="1538" d="M178 608v826h252v-772q0 -449 358 -449q319 0 320 432v789h250v-840q0 -309 -172 -473q-152 -143 -398 -144q-276 0 -438 158q-172 168 -172 473zM430 1663l88 203l438 -228l-65 -141z" />
<glyph unicode="&#xda;" horiz-adv-x="1538" d="M178 608v826h252v-772q0 -449 358 -449q319 0 320 432v789h250v-840q0 -309 -172 -473q-152 -143 -398 -144q-276 0 -438 158q-172 168 -172 473zM604 1638l438 228l88 -203l-460 -166z" />
<glyph unicode="&#xdb;" horiz-adv-x="1538" d="M178 608v826h252v-772q0 -449 358 -449q319 0 320 432v789h250v-840q0 -309 -172 -473q-152 -143 -398 -144q-276 0 -438 158q-172 168 -172 473zM399 1622l359 229h8l367 -227l-93 -133l-278 145l-279 -145z" />
<glyph unicode="&#xdc;" horiz-adv-x="1538" d="M178 608v826h252v-772q0 -449 358 -449q319 0 320 432v789h250v-840q0 -309 -172 -473q-152 -143 -398 -144q-276 0 -438 158q-172 168 -172 473zM365 1690q0 57 47 94q43 33 110 33q59 0 101 -33q45 -37 45 -94q0 -63 -45 -101q-41 -35 -101 -35q-68 0 -110 35 q-47 37 -47 101zM840 1690q0 57 47 94q43 33 110 33q59 0 101 -33q45 -37 45 -94q0 -63 -45 -101q-41 -35 -101 -35q-68 0 -110 35q-47 37 -47 101z" />
<glyph unicode="&#xdd;" horiz-adv-x="1288" d="M10 1434h287l356 -600l353 600h272l-510 -836v-598h-252v598zM481 1638l439 228l88 -203l-461 -166z" />
<glyph unicode="&#xde;" horiz-adv-x="1253" d="M199 0v1434h252v-211l155 4q293 0 436 -142q119 -119 119 -317q0 -195 -133 -326q-145 -141 -391 -141q-104 0 -186 8v-309h-252zM451 547q98 -10 178 -10q119 0 188 57q78 61 78 176q0 221 -285 221q-100 0 -159 -6v-438z" />
<glyph unicode="&#xdf;" horiz-adv-x="1128" d="M127 -2v1026q0 432 424 432q150 0 250 -82q98 -82 98 -200q0 -111 -82 -201q-84 -92 -84 -156q0 -63 51 -115q18 -18 117 -86q166 -119 166 -294q0 -143 -90 -242q-94 -102 -236 -103q-193 0 -299 121l76 181q82 -82 166 -82q131 0 131 131q0 85 -166 202 q-168 119 -168 240q0 119 84 213q84 96 84 145q0 45 -39 76q-37 31 -94 31q-154 0 -154 -231v-1006h-235z" />
<glyph unicode="&#xe0;" horiz-adv-x="948" d="M72 270q0 145 98 226q90 74 238 73q127 0 208 -59q10 238 -172 238q-102 0 -241 -64l-60 172q150 88 326 88q369 0 369 -383v-561h-205v106q-84 -119 -273 -118q-129 0 -206 73q-82 78 -82 209zM248 1352l186 139l213 -334l-139 -98zM307 295q0 -109 131 -109 q119 0 178 84v95q-59 45 -161 45q-147 0 -148 -115z" />
<glyph unicode="&#xe1;" horiz-adv-x="948" d="M72 270q0 145 98 226q90 74 238 73q127 0 208 -59q10 238 -172 238q-102 0 -241 -64l-60 172q150 88 326 88q369 0 369 -383v-561h-205v106q-84 -119 -273 -118q-129 0 -206 73q-82 78 -82 209zM307 295q0 -109 131 -109q119 0 178 84v95q-59 45 -161 45 q-147 0 -148 -115zM317 1157l215 338l185 -139l-258 -297z" />
<glyph unicode="&#xe2;" horiz-adv-x="948" d="M72 270q0 145 98 226q90 74 238 73q127 0 208 -59q10 238 -172 238q-102 0 -241 -64l-60 172q150 88 326 88q369 0 369 -383v-561h-205v106q-84 -119 -273 -118q-129 0 -206 73q-82 78 -82 209zM156 1174l313 272h8l311 -275l-110 -139l-207 166l-209 -162zM307 295 q0 -109 131 -109q119 0 178 84v95q-59 45 -161 45q-147 0 -148 -115z" />
<glyph unicode="&#xe3;" horiz-adv-x="948" d="M72 270q0 145 98 226q90 74 238 73q127 0 208 -59q10 238 -172 238q-102 0 -241 -64l-60 172q150 88 326 88q369 0 369 -383v-561h-205v106q-84 -119 -273 -118q-129 0 -206 73q-82 78 -82 209zM113 1208q113 141 247 142q49 0 123 -43q72 -43 113 -43q59 0 141 63 l80 -119q-121 -133 -239 -133q-45 0 -119 43q-74 41 -121 41t-129 -57zM307 295q0 -109 131 -109q119 0 178 84v95q-59 45 -161 45q-147 0 -148 -115z" />
<glyph unicode="&#xe4;" horiz-adv-x="948" d="M72 270q0 145 98 226q90 74 238 73q127 0 208 -59q10 238 -172 238q-102 0 -241 -64l-60 172q150 88 326 88q369 0 369 -383v-561h-205v106q-84 -119 -273 -118q-129 0 -206 73q-82 78 -82 209zM152 1227q-1 59 38 96q39 35 95 35q49 0 84 -35q39 -37 39 -96 q0 -63 -39 -103q-35 -35 -84 -34q-55 0 -95 34q-39 39 -38 103zM307 295q0 -109 131 -109q119 0 178 84v95q-59 45 -161 45q-147 0 -148 -115zM559 1227q0 59 39 96q37 35 92 35q49 0 86 -35q37 -37 37 -96q0 -63 -37 -103q-35 -35 -86 -34q-55 0 -92 34q-39 39 -39 103z " />
<glyph unicode="&#xe5;" horiz-adv-x="948" d="M72 270q0 145 98 226q90 74 238 73q127 0 208 -59q10 238 -172 238q-102 0 -241 -64l-60 172q150 88 326 88q369 0 369 -383v-561h-205v106q-84 -119 -273 -118q-129 0 -206 73q-82 78 -82 209zM227 1253q0 102 74 174t184 72q113 0 189 -72q74 -72 74 -174 q0 -100 -74 -170q-76 -72 -189 -71q-111 0 -184 71q-74 70 -74 170zM307 295q0 -109 131 -109q119 0 178 84v95q-59 45 -161 45q-147 0 -148 -115zM379 1255q0 -48 31 -81q31 -35 79 -35q47 0 78 35q29 33 29 81q0 49 -29 82q-31 33 -78 33q-49 0 -79 -33q-31 -33 -31 -82z " />
<glyph unicode="&#xe6;" horiz-adv-x="1554" d="M72 283q0 131 94 209q92 78 242 77q127 0 208 -45q10 106 -34 166q-43 57 -127 58q-113 0 -252 -64l-60 172q156 88 326 88q191 0 283 -96q129 96 307 96q182 0 307 -117q129 -123 129 -311q0 -66 -14 -127h-643v-88q61 -127 252 -127q154 0 262 84l65 -166 q-143 -115 -346 -115q-221 0 -354 121q-147 -117 -316 -116q-330 0 -329 301zM307 295q0 -109 131 -109q94 0 176 78l2 117q-74 29 -161 29q-63 0 -105 -31q-43 -33 -43 -84zM834 631q4 -45 4 -70v-14h422q-4 90 -58 143q-59 57 -162 58q-139 0 -206 -117z" />
<glyph unicode="&#xe7;" horiz-adv-x="997" d="M74 461q0 205 133 342q137 141 344 141q246 0 371 -125l-111 -186q-92 90 -229 90q-102 0 -176 -70q-80 -76 -80 -192q0 -119 82 -193q76 -72 184 -71q135 0 237 112l111 -172q-113 -150 -340 -160v-49q213 -12 213 -174q0 -82 -72 -129q-76 -51 -211 -51q-129 0 -245 86 l69 111q68 -53 144 -54q80 0 80 52q0 57 -84 57h-13v160q-186 27 -297 153q-111 127 -110 322z" />
<glyph unicode="&#xe8;" horiz-adv-x="1056" d="M74 461q0 207 131 342q135 141 356 141q182 0 307 -117q129 -123 129 -311q0 -78 -14 -127h-666q31 -215 277 -215q156 0 260 84l68 -166q-135 -115 -353 -115q-223 0 -358 134q-137 133 -137 350zM309 547h453q2 86 -53 143q-59 57 -158 58q-201 0 -242 -201zM330 1352 l186 139l213 -334l-139 -98z" />
<glyph unicode="&#xe9;" horiz-adv-x="1056" d="M74 461q0 207 131 342q135 141 356 141q182 0 307 -117q129 -123 129 -311q0 -78 -14 -127h-666q31 -215 277 -215q156 0 260 84l68 -166q-135 -115 -353 -115q-223 0 -358 134q-137 133 -137 350zM309 547h453q2 86 -53 143q-59 57 -158 58q-201 0 -242 -201zM420 1157 l215 338l184 -139l-258 -297z" />
<glyph unicode="&#xea;" horiz-adv-x="1056" d="M74 461q0 207 131 342q135 141 356 141q182 0 307 -117q129 -123 129 -311q0 -78 -14 -127h-666q31 -215 277 -215q156 0 260 84l68 -166q-135 -115 -353 -115q-223 0 -358 134q-137 133 -137 350zM233 1174l314 272h8l311 -275l-110 -139l-207 166l-209 -162zM309 547 h453q2 86 -53 143q-59 57 -158 58q-201 0 -242 -201z" />
<glyph unicode="&#xeb;" horiz-adv-x="1056" d="M74 461q0 207 131 342q135 141 356 141q182 0 307 -117q129 -123 129 -311q0 -78 -14 -127h-666q31 -215 277 -215q156 0 260 84l68 -166q-135 -115 -353 -115q-223 0 -358 134q-137 133 -137 350zM219 1227q0 59 39 96q39 35 94 35q49 0 84 -35q39 -37 39 -96 q0 -63 -39 -103q-35 -35 -84 -34q-55 0 -94 34q-39 39 -39 103zM309 547h453q2 86 -53 143q-59 57 -158 58q-201 0 -242 -201zM627 1227q0 59 39 96q37 35 92 35q49 0 86 -35q37 -37 37 -96q0 -63 -37 -103q-35 -35 -86 -34q-55 0 -92 34q-39 39 -39 103z" />
<glyph unicode="&#xec;" horiz-adv-x="567" d="M-8 1352l186 139l213 -334l-139 -98zM166 0v922h235v-922h-235z" />
<glyph unicode="&#xed;" horiz-adv-x="567" d="M129 1157l215 338l184 -139l-258 -297zM166 0v922h235v-922h-235z" />
<glyph unicode="&#xee;" horiz-adv-x="567" d="M-33 1174l314 272h8l311 -275l-111 -139l-206 166l-209 -162zM166 0v922h235v-922h-235z" />
<glyph unicode="&#xef;" horiz-adv-x="567" d="M-47 1227q0 59 39 96q39 35 94 35q49 0 84 -35q39 -37 39 -96q0 -63 -39 -103q-35 -35 -84 -34q-55 0 -94 34q-39 39 -39 103zM166 0v922h235v-922h-235zM360 1227q0 59 39 96q37 35 93 35q49 0 86 -35q37 -37 36 -96q0 -63 -36 -103q-35 -35 -86 -34q-55 0 -93 34 q-39 39 -39 103z" />
<glyph unicode="&#xf0;" horiz-adv-x="1150" d="M74 461q0 211 137 346q139 137 364 137q127 0 195 -92q-41 131 -125 250l-258 -92l-68 209l168 59q-86 80 -180 139l264 39q70 -41 138 -98l213 76l65 -209l-121 -43q211 -303 211 -641q0 -264 -137 -414q-133 -150 -365 -150q-225 0 -364 138q-137 135 -137 346z M326 461q-1 -115 71 -191q70 -74 178 -73q121 0 191 94q70 96 61 260q-49 172 -252 172q-106 0 -176 -72q-74 -74 -73 -190z" />
<glyph unicode="&#xf1;" horiz-adv-x="1118" d="M131 0v922h236v-93q100 109 264 109q379 0 379 -397v-541h-236v500q0 217 -207 217q-113 0 -200 -88v-629h-236zM203 1208q113 141 248 142q49 0 122 -43q72 -43 113 -43q59 0 141 63l80 -119q-121 -133 -239 -133q-45 0 -119 43q-74 41 -121 41t-129 -57z" />
<glyph unicode="&#xf2;" horiz-adv-x="1150" d="M74 461q0 211 137 346q139 137 364 137t365 -137q137 -135 137 -346t-137 -346q-139 -137 -365 -138q-225 0 -364 138q-137 135 -137 346zM322 1352l186 139l213 -334l-139 -98zM326 461q-1 -115 71 -191q70 -74 178 -73q111 0 181 71q72 74 71 193q0 115 -71 190 q-72 72 -181 72q-106 0 -176 -72q-74 -74 -73 -190z" />
<glyph unicode="&#xf3;" horiz-adv-x="1150" d="M74 461q0 211 137 346q139 137 364 137t365 -137q137 -135 137 -346t-137 -346q-139 -137 -365 -138q-225 0 -364 138q-137 135 -137 346zM326 461q-1 -115 71 -191q70 -74 178 -73q111 0 181 71q72 74 71 193q0 115 -71 190q-72 72 -181 72q-106 0 -176 -72 q-74 -74 -73 -190zM432 1157l215 338l184 -139l-258 -297z" />
<glyph unicode="&#xf4;" horiz-adv-x="1150" d="M74 461q0 211 137 346q139 137 364 137t365 -137q137 -135 137 -346t-137 -346q-139 -137 -365 -138q-225 0 -364 138q-137 135 -137 346zM262 1174l313 272h9l311 -275l-111 -139l-206 166l-209 -162zM326 461q-1 -115 71 -191q70 -74 178 -73q111 0 181 71 q72 74 71 193q0 115 -71 190q-72 72 -181 72q-106 0 -176 -72q-74 -74 -73 -190z" />
<glyph unicode="&#xf5;" horiz-adv-x="1150" d="M74 461q0 211 137 346q139 137 364 137t365 -137q137 -135 137 -346t-137 -346q-139 -137 -365 -138q-225 0 -364 138q-137 135 -137 346zM219 1208q113 141 248 142q49 0 123 -43q72 -43 112 -43q59 0 142 63l80 -119q-121 -133 -240 -133q-45 0 -119 43q-74 41 -121 41 t-129 -57zM326 461q-1 -115 71 -191q70 -74 178 -73q111 0 181 71q72 74 71 193q0 115 -71 190q-72 72 -181 72q-106 0 -176 -72q-74 -74 -73 -190z" />
<glyph unicode="&#xf6;" horiz-adv-x="1150" d="M74 461q0 211 137 346q139 137 364 137t365 -137q137 -135 137 -346t-137 -346q-139 -137 -365 -138q-225 0 -364 138q-137 135 -137 346zM258 1227q0 59 39 96q39 35 94 35q49 0 84 -35q39 -37 39 -96q0 -63 -39 -103q-35 -35 -84 -34q-55 0 -94 34q-39 39 -39 103z M326 461q-1 -115 71 -191q70 -74 178 -73q111 0 181 71q72 74 71 193q0 115 -71 190q-72 72 -181 72q-106 0 -176 -72q-74 -74 -73 -190zM666 1227q0 59 39 96q37 35 92 35q49 0 86 -35q37 -37 37 -96q0 -63 -37 -103q-35 -35 -86 -34q-55 0 -92 34q-39 39 -39 103z" />
<glyph unicode="&#xf7;" d="M135 635v205h950v-205h-950zM471 336q0 51 37 92q39 43 102 43q59 0 101 -43q37 -41 37 -92q0 -57 -37 -98q-39 -45 -101 -45q-63 0 -102 45q-37 39 -37 98zM471 1141q0 53 37 92q39 41 102 41q61 0 101 -41q37 -39 37 -92q0 -57 -37 -99q-39 -45 -101 -45q-63 0 -102 45 q-37 41 -37 99z" />
<glyph unicode="&#xf8;" horiz-adv-x="1181" d="M74 461q0 209 145 346t373 137q186 0 323 -98l80 74l84 -99l-71 -65q100 -127 100 -295q0 -209 -143 -346q-145 -137 -373 -138q-190 0 -326 97l-80 -74l-86 100l72 66q-98 123 -98 295zM326 461q-1 -72 28 -129l385 352q-66 39 -147 39q-119 0 -191 -72 q-76 -72 -75 -190zM442 236q66 -39 150 -39q121 0 192 71q74 74 74 193q0 74 -31 129z" />
<glyph unicode="&#xf9;" horiz-adv-x="1095" d="M111 358v564h235v-514q0 -211 176 -211q121 0 207 112v613h236v-922h-236v113q-111 -135 -295 -136q-143 0 -229 93q-94 100 -94 288zM285 1352l186 139l213 -334l-139 -98z" />
<glyph unicode="&#xfa;" horiz-adv-x="1095" d="M111 358v564h235v-514q0 -211 176 -211q121 0 207 112v613h236v-922h-236v113q-111 -135 -295 -136q-143 0 -229 93q-94 100 -94 288zM412 1157l215 338l184 -139l-258 -297z" />
<glyph unicode="&#xfb;" horiz-adv-x="1095" d="M111 358v564h235v-514q0 -211 176 -211q121 0 207 112v613h236v-922h-236v113q-111 -135 -295 -136q-143 0 -229 93q-94 100 -94 288zM229 1174l314 272h8l311 -275l-110 -139l-207 166l-209 -162z" />
<glyph unicode="&#xfc;" horiz-adv-x="1095" d="M111 358v564h235v-514q0 -211 176 -211q121 0 207 112v613h236v-922h-236v113q-111 -135 -295 -136q-143 0 -229 93q-94 100 -94 288zM211 1227q0 59 39 96q39 35 94 35q49 0 84 -35q39 -37 39 -96q0 -63 -39 -103q-35 -35 -84 -34q-55 0 -94 34q-39 39 -39 103z M618 1227q0 59 39 96q37 35 93 35q49 0 86 -35q37 -37 36 -96q0 -63 -36 -103q-35 -35 -86 -34q-55 0 -93 34q-39 39 -39 103z" />
<glyph unicode="&#xfd;" horiz-adv-x="1030" d="M10 922h283l215 -504q12 -29 45 -133q16 90 33 135l166 502h268l-363 -922q-98 -240 -178 -328q-74 -82 -178 -82q-100 0 -199 72l76 178q55 -33 96 -33q84 0 142 144l20 49zM362 1157l216 338l184 -139l-258 -297z" />
<glyph unicode="&#xfe;" horiz-adv-x="1142" d="M131 -410v1844h236v-586q111 96 284 96q188 0 305 -133q113 -129 113 -336q0 -215 -133 -354q-137 -143 -354 -144q-137 0 -215 46v-433h-236zM367 250q82 -53 194 -53q119 0 191 77q68 76 67 195q0 113 -61 182q-66 72 -180 72q-121 0 -211 -100v-373z" />
<glyph unicode="&#xff;" horiz-adv-x="1030" d="M10 922h283l215 -504q12 -29 45 -133q16 90 33 135l166 502h268l-363 -922q-98 -240 -178 -328q-74 -82 -178 -82q-100 0 -199 72l76 178q55 -33 96 -33q84 0 142 144l20 49zM199 1227q0 59 39 96q39 35 94 35q49 0 84 -35q39 -37 39 -96q0 -63 -39 -103q-35 -35 -84 -34 q-55 0 -94 34q-39 39 -39 103zM606 1227q0 59 39 96q37 35 92 35q49 0 86 -35q37 -37 37 -96q0 -63 -37 -103q-35 -35 -86 -34q-55 0 -92 34q-39 39 -39 103z" />
<glyph unicode="&#x100;" horiz-adv-x="1464" d="M14 0l607 1438h221l606 -1438h-268l-150 367h-612l-150 -367h-254zM414 1556v189h633v-189h-633zM514 602h420l-209 510z" />
<glyph unicode="&#x101;" horiz-adv-x="948" d="M72 270q0 145 98 226q90 74 238 73q127 0 208 -59q10 238 -172 238q-102 0 -241 -64l-60 172q150 88 326 88q369 0 369 -383v-561h-205v106q-84 -119 -273 -118q-129 0 -206 73q-82 78 -82 209zM197 1126v189h571v-189h-571zM307 295q0 -109 131 -109q119 0 178 84v95 q-59 45 -161 45q-147 0 -148 -115z" />
<glyph unicode="&#x102;" horiz-adv-x="1464" d="M14 0l607 1438h221l606 -1438h-268l-150 367h-612l-150 -367h-254zM346 1722l103 121q115 -129 292 -129q174 0 287 129l88 -123q-131 -211 -375 -211q-264 0 -395 213zM514 602h420l-209 510z" />
<glyph unicode="&#x103;" horiz-adv-x="948" d="M72 270q0 145 98 226q90 74 238 73q127 0 208 -59q10 238 -172 238q-102 0 -241 -64l-60 172q150 88 326 88q369 0 369 -383v-561h-205v106q-84 -119 -273 -118q-129 0 -206 73q-82 78 -82 209zM141 1278l105 117q104 -115 225 -115q141 0 229 113l82 -115 q-127 -188 -321 -188q-211 0 -320 188zM307 295q0 -109 131 -109q119 0 178 84v95q-59 45 -161 45q-147 0 -148 -115z" />
<glyph unicode="&#x104;" horiz-adv-x="1464" d="M14 0l607 1438h221l606 -1438h-43q-86 -2 -152 -45q-61 -43 -61 -94q0 -82 92 -82q43 0 86 20l72 -143q-66 -66 -211 -66q-117 0 -189 45q-86 49 -86 148q0 154 222 223l-148 361h-612l-150 -367h-254zM514 602h420l-209 510z" />
<glyph unicode="&#x105;" horiz-adv-x="948" d="M72 270q0 145 98 226q90 74 238 73q127 0 208 -59q10 238 -172 238q-102 0 -241 -64l-60 172q150 88 326 88q369 0 369 -383v-561q-90 0 -158 -43q-66 -43 -66 -96q0 -82 93 -82q43 0 86 20l71 -143q-66 -66 -211 -66q-117 0 -188 45q-86 49 -86 148q0 168 254 231v92 q-84 -119 -273 -118q-129 0 -206 73q-82 78 -82 209zM307 295q0 -109 131 -109q119 0 178 84v95q-59 45 -161 45q-147 0 -148 -115z" />
<glyph unicode="&#x106;" horiz-adv-x="1341" d="M92 717q0 322 189 524q201 215 544 215q276 0 437 -145l-113 -187q-143 96 -324 97q-203 0 -333 -136q-133 -139 -134 -368q0 -223 138 -365q139 -139 358 -139q190 0 340 115l96 -189q-152 -162 -459 -162q-330 0 -534 203q-205 203 -205 537zM614 1638l439 228l88 -203 l-461 -166z" />
<glyph unicode="&#x107;" horiz-adv-x="997" d="M74 461q0 205 133 342q137 141 344 141q246 0 371 -125l-111 -186q-92 90 -229 90q-102 0 -176 -70q-80 -76 -80 -192q0 -119 82 -193q76 -72 184 -71q135 0 237 112l111 -172q-119 -160 -367 -160q-225 0 -362 134q-137 133 -137 350zM401 1157l215 338l185 -139 l-258 -297z" />
<glyph unicode="&#x108;" horiz-adv-x="1341" d="M92 717q0 322 189 524q201 215 544 215q276 0 437 -145l-113 -187q-143 96 -324 97q-203 0 -333 -136q-133 -139 -134 -368q0 -223 138 -365q139 -139 358 -139q190 0 340 115l96 -189q-152 -162 -459 -162q-330 0 -534 203q-205 203 -205 537zM426 1622l358 229h9 l366 -227l-92 -133l-279 145l-278 -145z" />
<glyph unicode="&#x109;" horiz-adv-x="997" d="M74 461q0 205 133 342q137 141 344 141q246 0 371 -125l-111 -186q-92 90 -229 90q-102 0 -176 -70q-80 -76 -80 -192q0 -119 82 -193q76 -72 184 -71q135 0 237 112l111 -172q-119 -160 -367 -160q-225 0 -362 134q-137 133 -137 350zM250 1174l313 272h8l312 -275 l-111 -139l-207 166l-209 -162z" />
<glyph unicode="&#x10a;" horiz-adv-x="1341" d="M92 717q0 322 189 524q201 215 544 215q276 0 437 -145l-113 -187q-143 96 -324 97q-203 0 -333 -136q-133 -139 -134 -368q0 -223 138 -365q139 -139 358 -139q190 0 340 115l96 -189q-152 -162 -459 -162q-330 0 -534 203q-205 203 -205 537zM623 1702q0 65 49 106 q45 39 112 39q61 0 107 -39q47 -41 47 -106q0 -70 -47 -113q-45 -41 -107 -41q-68 0 -112 41q-49 41 -49 113z" />
<glyph unicode="&#x10b;" horiz-adv-x="997" d="M74 461q0 205 133 342q137 141 344 141q246 0 371 -125l-111 -186q-92 90 -229 90q-102 0 -176 -70q-80 -76 -80 -192q0 -119 82 -193q76 -72 184 -71q135 0 237 112l111 -172q-119 -160 -367 -160q-225 0 -362 134q-137 133 -137 350zM416 1253q0 62 43 101 q43 37 104 37q53 0 92 -37q43 -39 43 -101q0 -68 -43 -108q-39 -39 -92 -39q-63 0 -104 39q-43 41 -43 108z" />
<glyph unicode="&#x10c;" horiz-adv-x="1341" d="M92 717q0 322 189 524q201 215 544 215q276 0 437 -145l-113 -187q-143 96 -324 97q-203 0 -333 -136q-133 -139 -134 -368q0 -223 138 -365q139 -139 358 -139q190 0 340 115l96 -189q-152 -162 -459 -162q-330 0 -534 203q-205 203 -205 537zM426 1733l92 133l279 -162 l276 162l84 -131l-356 -230h-8z" />
<glyph unicode="&#x10d;" horiz-adv-x="997" d="M74 461q0 205 133 342q137 141 344 141q246 0 371 -125l-111 -186q-92 90 -229 90q-102 0 -176 -70q-80 -76 -80 -192q0 -119 82 -193q76 -72 184 -71q135 0 237 112l111 -172q-119 -160 -367 -160q-225 0 -362 134q-137 133 -137 350zM236 1317l110 139l207 -188 l209 184l106 -137l-313 -273h-8z" />
<glyph unicode="&#x10e;" horiz-adv-x="1517" d="M199 0v1434l422 6q406 0 618 -213q186 -186 186 -496q0 -319 -204 -518q-223 -217 -617 -217zM319 1733l93 133l278 -162l277 162l84 -131l-357 -230h-8zM451 236q70 -4 161 -5q256 0 404 138q143 133 143 362q0 219 -143 344q-145 129 -400 129q-79 0 -165 -6v-962z" />
<glyph unicode="&#x10f;" horiz-adv-x="1138" d="M74 451q0 217 141 356q141 137 365 137q117 0 192 -45v535h236v-1434h-236v96q-106 -113 -264 -112q-197 0 -315 129q-119 127 -119 338zM326 459q0 -119 69 -189q63 -68 162 -67q121 0 215 94v371q-88 55 -182 55q-111 0 -184 -68q-80 -74 -80 -196zM1083 1108 q92 88 93 225q0 51 -23 101h229q12 -25 13 -72q0 -244 -203 -356z" />
<glyph unicode="&#x110;" horiz-adv-x="1533" d="M20 608v221h195v605l422 6q406 0 618 -213q186 -186 187 -496q0 -319 -205 -518q-223 -217 -616 -217l-406 4v608h-195zM465 236q70 -4 164 -5q256 0 403 138q143 133 144 362q0 219 -144 344q-145 129 -399 129q-82 0 -168 -6v-369h362v-221h-362v-372z" />
<glyph unicode="&#x111;" horiz-adv-x="1138" d="M74 451q0 217 141 356q141 137 365 137q117 0 192 -45v166h-266v190h266v179h236v-179h161v-190h-161v-1065h-236v96q-106 -113 -264 -112q-197 0 -315 129q-119 127 -119 338zM326 459q0 -119 69 -189q63 -68 162 -67q121 0 215 94v371q-88 55 -182 55q-111 0 -184 -68 q-80 -74 -80 -196z" />
<glyph unicode="&#x112;" horiz-adv-x="1177" d="M199 0v1434h829v-236h-577v-356h516v-236h-516v-370h598v-236h-850zM297 1556v189h633v-189h-633z" />
<glyph unicode="&#x113;" horiz-adv-x="1056" d="M74 461q0 207 131 342q135 141 356 141q182 0 307 -117q129 -123 129 -311q0 -78 -14 -127h-666q31 -215 277 -215q156 0 260 84l68 -166q-135 -115 -353 -115q-223 0 -358 134q-137 133 -137 350zM256 1126v189h571v-189h-571zM309 547h453q2 86 -53 143q-59 57 -158 58 q-201 0 -242 -201z" />
<glyph unicode="&#x116;" horiz-adv-x="1177" d="M199 0v1434h829v-236h-577v-356h516v-236h-516v-370h598v-236h-850zM465 1702q0 65 49 106q45 39 113 39q61 0 106 -39q47 -41 47 -106q0 -70 -47 -113q-45 -41 -106 -41q-68 0 -113 41q-49 41 -49 113z" />
<glyph unicode="&#x117;" horiz-adv-x="1056" d="M74 461q0 207 131 342q135 141 356 141q182 0 307 -117q129 -123 129 -311q0 -78 -14 -127h-666q31 -215 277 -215q156 0 260 84l68 -166q-135 -115 -353 -115q-223 0 -358 134q-137 133 -137 350zM309 547h453q2 86 -53 143q-59 57 -158 58q-201 0 -242 -201zM403 1253 q0 62 43 101q43 37 105 37q53 0 92 -37q43 -39 43 -101q0 -68 -43 -108q-39 -39 -92 -39q-63 0 -105 39q-43 41 -43 108z" />
<glyph unicode="&#x118;" horiz-adv-x="1177" d="M199 0v1434h829v-236h-577v-356h516v-236h-516v-370h598v-236h-11q-86 -2 -151 -45q-61 -43 -62 -94q0 -82 93 -82q43 0 86 20l71 -143q-66 -66 -211 -66q-117 0 -188 45q-86 49 -86 148q0 147 203 217h-594z" />
<glyph unicode="&#x119;" horiz-adv-x="1056" d="M74 461q0 207 131 342q135 141 356 141q182 0 307 -117q129 -123 129 -311q0 -78 -14 -127h-666q31 -215 277 -215q156 0 260 84l68 -166q-45 -41 -119 -72q-135 -82 -135 -159q0 -82 92 -82q43 0 86 20l72 -143q-66 -66 -211 -66q-117 0 -189 45q-86 49 -86 148 q0 111 154 194h-17q-223 0 -358 134q-137 133 -137 350zM309 547h453q2 86 -53 143q-59 57 -158 58q-201 0 -242 -201z" />
<glyph unicode="&#x11a;" horiz-adv-x="1177" d="M199 0v1434h829v-236h-577v-356h516v-236h-516v-370h598v-236h-850zM262 1733l92 133l279 -162l276 162l84 -131l-356 -230h-8z" />
<glyph unicode="&#x11b;" horiz-adv-x="1056" d="M74 461q0 207 131 342q135 141 356 141q182 0 307 -117q129 -123 129 -311q0 -78 -14 -127h-666q31 -215 277 -215q156 0 260 84l68 -166q-135 -115 -353 -115q-223 0 -358 134q-137 133 -137 350zM244 1317l110 139l207 -188l209 184l107 -137l-314 -273h-8zM309 547 h453q2 86 -53 143q-59 57 -158 58q-201 0 -242 -201z" />
<glyph unicode="&#x11c;" horiz-adv-x="1488" d="M92 717q0 315 193 524q201 215 522 215q276 0 461 -145l-107 -201q-117 111 -323 111q-213 0 -344 -131q-135 -137 -136 -373q0 -227 134 -367q133 -137 352 -137q195 0 297 98v226h-346v235h581v-594q-201 -201 -536 -201q-348 0 -549 203q-199 199 -199 537zM426 1622 l358 229h9l366 -227l-92 -133l-279 145l-278 -145z" />
<glyph unicode="&#x11d;" horiz-adv-x="1021" d="M10 -125q0 222 299 285q-16 29 -16 63q0 39 20 66q-219 86 -219 309q0 143 105 242q113 104 288 104q133 0 236 -65l278 61l9 -188l-154 -35q23 -57 23 -119q0 -141 -107 -240q-111 -100 -285 -100h-16q-4 -12 -4 -35q0 -25 12 -47h10q213 0 340 -74q139 -78 140 -227 q0 -150 -140 -227q-127 -74 -340 -74q-215 0 -339 72q-139 78 -140 229zM182 1174l314 272h8l311 -275l-110 -139l-207 166l-209 -162zM229 -125q0 -113 260 -113q258 0 259 113q0 113 -259 113q-260 0 -260 -113zM315 598q0 -65 47 -106q47 -43 125 -43q76 0 123 40 q49 41 49 109t-45 111q-47 45 -127 45q-78 0 -125 -47q-47 -43 -47 -109z" />
<glyph unicode="&#x11e;" horiz-adv-x="1488" d="M92 717q0 315 193 524q201 215 522 215q276 0 461 -145l-107 -201q-117 111 -323 111q-213 0 -344 -131q-135 -137 -136 -373q0 -227 134 -367q133 -137 352 -137q195 0 297 98v226h-346v235h581v-594q-201 -201 -536 -201q-348 0 -549 203q-199 199 -199 537zM438 1722 l103 121q115 -129 293 -129q174 0 286 129l88 -123q-131 -211 -374 -211q-264 0 -396 213z" />
<glyph unicode="&#x11f;" horiz-adv-x="1021" d="M10 -125q0 222 299 285q-16 29 -16 63q0 39 20 66q-219 86 -219 309q0 143 105 242q113 104 288 104q133 0 236 -65l278 61l9 -188l-154 -35q23 -57 23 -119q0 -141 -107 -240q-111 -100 -285 -100h-16q-4 -12 -4 -35q0 -25 12 -47h10q213 0 340 -74q139 -78 140 -227 q0 -150 -140 -227q-127 -74 -340 -74q-215 0 -339 72q-139 78 -140 229zM168 1278l104 117q104 -115 226 -115q141 0 229 113l82 -115q-127 -188 -322 -188q-211 0 -319 188zM229 -125q0 -113 260 -113q258 0 259 113q0 113 -259 113q-260 0 -260 -113zM315 598 q0 -65 47 -106q47 -43 125 -43q76 0 123 40q49 41 49 109t-45 111q-47 45 -127 45q-78 0 -125 -47q-47 -43 -47 -109z" />
<glyph unicode="&#x120;" horiz-adv-x="1488" d="M92 717q0 315 193 524q201 215 522 215q276 0 461 -145l-107 -201q-117 111 -323 111q-213 0 -344 -131q-135 -137 -136 -373q0 -227 134 -367q133 -137 352 -137q195 0 297 98v226h-346v235h581v-594q-201 -201 -536 -201q-348 0 -549 203q-199 199 -199 537zM612 1702 q1 65 50 106q45 39 112 39q61 0 107 -39q47 -41 47 -106q0 -70 -47 -113q-45 -41 -107 -41q-68 0 -112 41q-49 41 -50 113z" />
<glyph unicode="&#x121;" horiz-adv-x="1021" d="M10 -125q0 222 299 285q-16 29 -16 63q0 39 20 66q-219 86 -219 309q0 143 105 242q113 104 288 104q133 0 236 -65l278 61l9 -188l-154 -35q23 -57 23 -119q0 -141 -107 -240q-111 -100 -285 -100h-16q-4 -12 -4 -35q0 -25 12 -47h10q213 0 340 -74q139 -78 140 -227 q0 -150 -140 -227q-127 -74 -340 -74q-215 0 -339 72q-139 78 -140 229zM229 -125q0 -113 260 -113q258 0 259 113q0 113 -259 113q-260 0 -260 -113zM315 598q0 -65 47 -106q47 -43 125 -43q76 0 123 40q49 41 49 109t-45 111q-47 45 -127 45q-78 0 -125 -47 q-47 -43 -47 -109zM346 1253q0 62 43 101q43 37 105 37q53 0 92 -37q43 -39 43 -101q0 -68 -43 -108q-39 -39 -92 -39q-63 0 -105 39q-43 41 -43 108z" />
<glyph unicode="&#x122;" horiz-adv-x="1488" d="M92 717q0 315 193 524q201 215 522 215q276 0 461 -145l-107 -201q-117 111 -323 111q-213 0 -344 -131q-135 -137 -136 -373q0 -227 134 -367q133 -137 352 -137q195 0 297 98v226h-346v235h581v-594q-201 -201 -536 -201q-348 0 -549 203q-199 199 -199 537zM641 -319 q88 37 88 122q0 53 -35 78l230 51q41 -25 41 -100q0 -102 -84 -174q-72 -63 -170 -80z" />
<glyph unicode="&#x123;" horiz-adv-x="1021" d="M10 -125q0 222 299 285q-16 29 -16 63q0 39 20 66q-219 86 -219 309q0 143 105 242q113 104 288 104q133 0 236 -65l278 61l9 -188l-154 -35q23 -57 23 -119q0 -141 -107 -240q-111 -100 -285 -100h-16q-4 -12 -4 -35q0 -25 12 -47h10q213 0 340 -74q139 -78 140 -227 q0 -150 -140 -227q-127 -74 -340 -74q-215 0 -339 72q-139 78 -140 229zM229 -125q0 -113 260 -113q258 0 259 113q0 113 -259 113q-260 0 -260 -113zM315 598q0 -65 47 -106q47 -43 125 -43q76 0 123 40q49 41 49 109t-45 111q-47 45 -127 45q-78 0 -125 -47 q-47 -43 -47 -109zM350 1186q0 102 84 174q72 63 170 80l70 -103q-88 -37 -88 -123q0 -53 35 -77l-230 -52q-41 25 -41 101z" />
<glyph unicode="&#x124;" horiz-adv-x="1556" d="M199 0v1434h252v-586h655v586h250v-1434h-250v612h-655v-612h-252zM414 1622l358 229h8l367 -227l-92 -133l-279 145l-278 -145z" />
<glyph unicode="&#x125;" horiz-adv-x="1118" d="M-51 1622l358 229h8l367 -227l-92 -133l-279 145l-278 -145zM131 0v1434h236v-596q104 100 264 100q379 0 379 -403v-535h-236v504q0 213 -205 213q-119 0 -202 -84v-633h-236z" />
<glyph unicode="&#x126;" horiz-adv-x="1576" d="M45 1036v219h164v179h252v-179h655v179h250v-179h164v-219h-164v-1036h-250v612h-655v-612h-252v1036h-164zM461 848h655v188h-655v-188z" />
<glyph unicode="&#x127;" horiz-adv-x="1193" d="M-10 1034v219h217v181h235v-181h303v-219h-303v-196q104 100 265 100q379 0 378 -403v-535h-235v504q0 213 -205 213q-119 0 -203 -84v-633h-235v1034h-217z" />
<glyph unicode="&#x12a;" horiz-adv-x="710" d="M47 1556v189h633v-189h-633zM229 0v1434h252v-1434h-252z" />
<glyph unicode="&#x12b;" horiz-adv-x="567" d="M-2 1126v189h571v-189h-571zM166 0v922h235v-922h-235z" />
<glyph unicode="&#x12e;" horiz-adv-x="710" d="M23 -217q0 147 206 217v1434h252v-1434q-90 0 -157 -43q-66 -43 -66 -96q0 -82 92 -82q43 0 86 20l72 -143q-66 -66 -211 -66q-117 0 -188 45q-86 49 -86 148z" />
<glyph unicode="&#x12f;" horiz-adv-x="567" d="M-57 -217q0 158 223 223v916h235v-922h-10q-86 -2 -151 -45q-61 -43 -62 -94q0 -82 92 -82q43 0 86 20l72 -143q-66 -66 -211 -66q-117 0 -188 45q-86 49 -86 148zM135 1253q0 62 43 101q43 37 105 37q53 0 92 -37q43 -39 43 -101q0 -68 -43 -108q-39 -39 -92 -39 q-63 0 -105 39q-43 41 -43 108z" />
<glyph unicode="&#x130;" horiz-adv-x="710" d="M199 1702q0 65 49 106q45 39 112 39q61 0 107 -39q47 -41 47 -106q0 -70 -47 -113q-45 -41 -107 -41q-68 0 -112 41q-49 41 -49 113zM229 0v1434h252v-1434h-252z" />
<glyph unicode="&#x131;" horiz-adv-x="567" d="M166 0v922h235v-922h-235z" />
<glyph unicode="&#x134;" horiz-adv-x="798" d="M10 66l82 192q59 -45 127 -45q129 0 129 168v1053h252v-1096q0 -360 -346 -361q-168 0 -244 89zM104 1622l359 229h8l367 -227l-93 -133l-278 145l-279 -145z" />
<glyph unicode="&#x135;" horiz-adv-x="581" d="M-100 -360l63 186q53 -33 105 -33q111 0 110 160v969h236v-990q0 -358 -289 -358q-152 0 -225 66zM-20 1174l313 272h8l311 -275l-110 -139l-207 166l-209 -162z" />
<glyph unicode="&#x136;" horiz-adv-x="1376" d="M199 0v1434h252v-680l565 680h303l-590 -668l627 -766h-320l-585 739v-739h-252zM498 -319q88 37 88 122q0 53 -35 78l229 51q41 -25 41 -100q0 -102 -84 -174q-72 -63 -170 -80z" />
<glyph unicode="&#x137;" horiz-adv-x="1052" d="M131 0v1434h236v-1434h-236zM315 -319q88 37 88 122q0 53 -34 78l229 51q41 -25 41 -100q0 -102 -84 -174q-72 -63 -170 -80zM371 481l329 441h297l-346 -422l387 -500h-303z" />
<glyph unicode="&#x139;" horiz-adv-x="1120" d="M199 0v1434h252v-1198h645v-236h-897zM399 1638l439 228l88 -203l-461 -166z" />
<glyph unicode="&#x13a;" horiz-adv-x="612" d="M131 254v1180h236v-1084q0 -150 79 -149q45 0 97 37l49 -181q-96 -78 -244 -77q-217 0 -217 274zM145 1638l439 228l88 -203l-461 -166z" />
<glyph unicode="&#x13b;" horiz-adv-x="1120" d="M199 0v1434h252v-1198h645v-236h-897zM446 -319q88 37 89 122q0 53 -35 78l229 51q41 -25 41 -100q0 -102 -84 -174q-72 -63 -170 -80z" />
<glyph unicode="&#x13c;" horiz-adv-x="612" d="M131 254v1180h236v-1084q0 -150 79 -149q45 0 97 37l49 -181q-96 -78 -244 -77q-217 0 -217 274zM172 -319q88 37 88 122q0 53 -35 78l230 51q41 -25 41 -100q0 -102 -84 -174q-72 -63 -170 -80z" />
<glyph unicode="&#x13d;" horiz-adv-x="1120" d="M199 0v1434h252v-1198h645v-236h-897zM659 1108q92 88 93 225q0 51 -23 101h229q12 -25 13 -72q0 -244 -203 -356z" />
<glyph unicode="&#x13e;" horiz-adv-x="612" d="M131 254v1180h236v-1084q0 -150 79 -149q45 0 97 37l49 -181q-96 -78 -244 -77q-217 0 -217 274zM455 1108q92 88 92 225q0 51 -23 101h230q12 -25 12 -72q0 -244 -203 -356z" />
<glyph unicode="&#x13f;" horiz-adv-x="1120" d="M199 0v1434h252v-1198h645v-236h-897zM729 768q0 57 43 102q47 49 121 50q63 0 108 -50q41 -45 41 -102q0 -66 -41 -113q-45 -51 -108 -51q-74 0 -121 51q-43 47 -43 113z" />
<glyph unicode="&#x140;" horiz-adv-x="716" d="M131 254v1180h236v-1084q0 -150 79 -149q45 0 97 37l49 -181q-96 -78 -244 -77q-217 0 -217 274zM467 692q0 62 43 101q43 37 104 36q53 0 93 -36q43 -39 43 -101q0 -68 -43 -108q-39 -39 -93 -39q-63 0 -104 39q-43 41 -43 108z" />
<glyph unicode="&#x141;" horiz-adv-x="1140" d="M45 418v241l174 80v695h252v-578l334 154v-240l-334 -156v-378h645v-236h-897v498z" />
<glyph unicode="&#x142;" horiz-adv-x="673" d="M25 414v241l147 68v711h236v-603l192 89v-242l-192 -88v-240q0 -150 79 -149q45 0 97 37l49 -181q-96 -78 -244 -77q-217 0 -217 274v227z" />
<glyph unicode="&#x143;" horiz-adv-x="1622" d="M199 0v1434h200l789 -998v998h235v-1434h-200l-789 993v-993h-235zM659 1638l439 228l88 -203l-461 -166z" />
<glyph unicode="&#x144;" horiz-adv-x="1118" d="M131 0v922h236v-93q100 109 264 109q379 0 379 -397v-541h-236v500q0 217 -207 217q-113 0 -200 -88v-629h-236zM430 1157l215 338l184 -139l-258 -297z" />
<glyph unicode="&#x145;" horiz-adv-x="1622" d="M199 0v1434h200l789 -998v998h235v-1434h-200l-789 993v-993h-235zM625 -319q88 37 88 122q0 53 -35 78l229 51q41 -25 41 -100q0 -102 -84 -174q-72 -63 -170 -80z" />
<glyph unicode="&#x146;" horiz-adv-x="1118" d="M131 0v922h236v-93q100 109 264 109q379 0 379 -397v-541h-236v500q0 217 -207 217q-113 0 -200 -88v-629h-236zM369 -319q88 37 88 122q0 53 -35 78l229 51q41 -25 41 -100q0 -102 -84 -174q-72 -63 -170 -80z" />
<glyph unicode="&#x147;" horiz-adv-x="1622" d="M199 0v1434h200l789 -998v998h235v-1434h-200l-789 993v-993h-235zM446 1733l93 133l278 -162l277 162l84 -131l-357 -230h-8z" />
<glyph unicode="&#x148;" horiz-adv-x="1118" d="M131 0v922h236v-93q100 109 264 109q379 0 379 -397v-541h-236v500q0 217 -207 217q-113 0 -200 -88v-629h-236zM242 1317l110 139l207 -188l209 184l106 -137l-313 -273h-8z" />
<glyph unicode="&#x14c;" horiz-adv-x="1677" d="M92 717q0 315 207 526q213 213 539 213q324 0 534 -203q213 -207 213 -536q0 -322 -213 -531t-534 -209q-324 0 -533 203q-213 207 -213 537zM358 717q1 -216 140 -359q137 -145 340 -145q221 0 354 145q127 141 127 359q0 221 -139 362q-137 141 -342 142 q-207 0 -342 -142q-137 -141 -138 -362zM537 1556v189h632v-189h-632z" />
<glyph unicode="&#x14d;" horiz-adv-x="1150" d="M74 461q0 211 137 346q139 137 364 137t365 -137q137 -135 137 -346t-137 -346q-139 -137 -365 -138q-225 0 -364 138q-137 135 -137 346zM305 1126v189h572v-189h-572zM326 461q-1 -115 71 -191q70 -74 178 -73q111 0 181 71q72 74 71 193q0 115 -71 190q-72 72 -181 72 q-106 0 -176 -72q-74 -74 -73 -190z" />
<glyph unicode="&#x150;" horiz-adv-x="1677" d="M92 717q0 315 207 526q213 213 539 213q324 0 534 -203q213 -207 213 -536q0 -322 -213 -531t-534 -209q-324 0 -533 203q-213 207 -213 537zM358 717q1 -216 140 -359q137 -145 340 -145q221 0 354 145q127 141 127 359q0 221 -139 362q-137 141 -342 142 q-207 0 -342 -142q-137 -141 -138 -362zM528 1591l234 275l203 -105l-336 -264zM901 1597l324 269l164 -148l-392 -221z" />
<glyph unicode="&#x151;" horiz-adv-x="1150" d="M74 461q0 211 137 346q139 137 364 137t365 -137q137 -135 137 -346t-137 -346q-139 -137 -365 -138q-225 0 -364 138q-137 135 -137 346zM276 1157l207 340l168 -125l-233 -313zM326 461q-1 -115 71 -191q70 -74 178 -73q111 0 181 71q72 74 71 193q0 115 -71 190 q-72 72 -181 72q-106 0 -176 -72q-74 -74 -73 -190zM610 1157l238 320l174 -134l-270 -284z" />
<glyph unicode="&#x152;" horiz-adv-x="2125" d="M92 717q0 322 189 524q201 215 544 215q178 0 322 -70v48h829v-236h-577v-356h516v-236h-516v-370h598v-236h-850v41q-147 -63 -316 -64q-330 0 -534 203q-205 203 -205 537zM358 717q0 -223 138 -365q139 -139 358 -139q162 0 293 82v829q-143 96 -322 97 q-203 0 -333 -136q-133 -139 -134 -368z" />
<glyph unicode="&#x153;" horiz-adv-x="1705" d="M74 461q0 211 137 346q139 137 364 137q190 0 322 -102q129 102 313 102q182 0 308 -117q129 -123 129 -311q0 -78 -15 -127h-665q31 -215 274 -215q158 0 262 84l66 -166q-133 -115 -352 -115q-193 0 -320 99q-129 -98 -322 -99q-225 0 -364 138q-137 135 -137 346z M324 461q0 -115 71 -191q72 -74 180 -73q111 -1 183 65q-35 92 -35 199q0 111 37 198q-78 63 -185 64q-106 0 -178 -72q-74 -74 -73 -190zM958 547h453q2 86 -55 143t-156 58q-201 0 -242 -201z" />
<glyph unicode="&#x154;" horiz-adv-x="1347" d="M199 0v1434l436 4q520 0 520 -443q0 -166 -94 -280q-74 -92 -182 -129l448 -586h-305l-395 537h-176v-537h-252zM424 1638l438 228l88 -203l-461 -166zM451 772h163q117 0 193 55q82 61 82 166q0 209 -266 209q-37 0 -172 -4v-426z" />
<glyph unicode="&#x155;" horiz-adv-x="724" d="M131 0v922h236v-91q78 106 211 107q96 0 143 -35l-84 -221q-59 35 -119 35q-102 0 -151 -99v-618h-236zM250 1157l215 338l184 -139l-258 -297z" />
<glyph unicode="&#x156;" horiz-adv-x="1347" d="M199 0v1434l436 4q520 0 520 -443q0 -166 -94 -280q-74 -92 -182 -129l448 -586h-305l-395 537h-176v-537h-252zM451 772h163q117 0 193 55q82 61 82 166q0 209 -266 209q-37 0 -172 -4v-426zM481 -319q88 37 88 122q0 53 -34 78l229 51q41 -25 41 -100q0 -102 -84 -174 q-72 -63 -170 -80z" />
<glyph unicode="&#x157;" horiz-adv-x="724" d="M131 0v922h236v-91q78 106 211 107q96 0 143 -35l-84 -221q-59 35 -119 35q-102 0 -151 -99v-618h-236zM160 -319q88 37 88 122q0 53 -35 78l229 51q41 -25 41 -100q0 -102 -84 -174q-72 -63 -170 -80z" />
<glyph unicode="&#x158;" horiz-adv-x="1347" d="M199 0v1434l436 4q520 0 520 -443q0 -166 -94 -280q-74 -92 -182 -129l448 -586h-305l-395 537h-176v-537h-252zM252 1733l92 133l279 -162l276 162l84 -131l-356 -230h-9zM451 772h163q117 0 193 55q82 61 82 166q0 209 -266 209q-37 0 -172 -4v-426z" />
<glyph unicode="&#x159;" horiz-adv-x="724" d="M88 1317l111 139l207 -188l208 184l107 -137l-313 -273h-9zM131 0v922h236v-91q78 106 211 107q96 0 143 -35l-84 -221q-59 35 -119 35q-102 0 -151 -99v-618h-236z" />
<glyph unicode="&#x15a;" horiz-adv-x="1132" d="M92 203l144 172q125 -162 329 -162q92 0 150 43q59 45 59 125q0 92 -102 160q-31 20 -221 110q-154 72 -224 146q-102 106 -102 264q0 168 119 278q125 117 327 117q270 0 410 -153l-135 -189q-111 106 -254 107q-92 0 -148 -43q-53 -43 -53 -115q0 -96 103 -164 q33 -23 223 -108q152 -70 221 -142q102 -104 102 -266q0 -178 -139 -293q-135 -113 -340 -113q-147 0 -276 58q-143 63 -193 168zM428 1638l438 228l88 -203l-460 -166z" />
<glyph unicode="&#x15b;" horiz-adv-x="909" d="M76 135l114 154q106 -115 287 -115q121 0 121 86q0 47 -78 80q-27 10 -80 25l-90 26q-250 82 -250 273q0 131 99 208q92 72 239 72q225 0 350 -117l-88 -168q-113 88 -249 89q-51 0 -84 -25q-31 -23 -31 -55q0 -49 78 -80l172 -53q248 -78 248 -263q0 -135 -103 -215 q-100 -80 -270 -80q-119 0 -240 56q-111 47 -145 102zM297 1157l215 338l184 -139l-258 -297z" />
<glyph unicode="&#x15c;" horiz-adv-x="1132" d="M92 203l144 172q125 -162 329 -162q92 0 150 43q59 45 59 125q0 92 -102 160q-31 20 -221 110q-154 72 -224 146q-102 106 -102 264q0 168 119 278q125 117 327 117q270 0 410 -153l-135 -189q-111 106 -254 107q-92 0 -148 -43q-53 -43 -53 -115q0 -96 103 -164 q33 -23 223 -108q152 -70 221 -142q102 -104 102 -266q0 -178 -139 -293q-135 -113 -340 -113q-147 0 -276 58q-143 63 -193 168zM199 1622l358 229h8l367 -227l-92 -133l-279 145l-278 -145z" />
<glyph unicode="&#x15d;" horiz-adv-x="909" d="M76 135l114 154q106 -115 287 -115q121 0 121 86q0 47 -78 80q-27 10 -80 25l-90 26q-250 82 -250 273q0 131 99 208q92 72 239 72q225 0 350 -117l-88 -168q-113 88 -249 89q-51 0 -84 -25q-31 -23 -31 -55q0 -49 78 -80l172 -53q248 -78 248 -263q0 -135 -103 -215 q-100 -80 -270 -80q-119 0 -240 56q-111 47 -145 102zM139 1174l314 272h8l311 -275l-110 -139l-207 166l-209 -162z" />
<glyph unicode="&#x15e;" horiz-adv-x="1132" d="M92 203l144 172q125 -162 329 -162q92 0 150 43q59 45 59 125q0 92 -102 160q-31 20 -221 110q-154 72 -224 146q-102 106 -102 264q0 168 119 278q125 117 327 117q270 0 410 -153l-135 -189q-111 106 -254 107q-92 0 -148 -43q-53 -43 -53 -115q0 -96 103 -164 q33 -23 223 -108q152 -70 221 -142q102 -104 102 -266q0 -168 -122 -281q-121 -109 -310 -122v-52q227 -12 228 -174q0 -80 -72 -129q-74 -51 -201 -51q-166 0 -284 92l75 119q82 -68 152 -68q80 0 80 52q0 57 -84 57h-13v156q-309 35 -397 221z" />
<glyph unicode="&#x15f;" horiz-adv-x="909" d="M76 135l114 154q106 -115 287 -115q121 0 121 86q0 47 -78 80q-27 10 -80 25l-90 26q-250 82 -250 273q0 131 99 208q92 72 239 72q225 0 350 -117l-88 -168q-113 88 -249 89q-51 0 -84 -25q-31 -23 -31 -55q0 -49 78 -80l172 -53q248 -78 248 -263q0 -131 -95 -209 q-94 -78 -252 -83v-52q213 -12 213 -174q0 -82 -71 -129q-76 -51 -211 -51q-129 0 -246 86l70 111q68 -53 143 -54q80 0 80 52q0 57 -84 57h-12v162q-219 37 -293 147z" />
<glyph unicode="&#x160;" horiz-adv-x="1132" d="M92 203l144 172q125 -162 329 -162q92 0 150 43q59 45 59 125q0 92 -102 160q-31 20 -221 110q-154 72 -224 146q-102 106 -102 264q0 168 119 278q125 117 327 117q270 0 410 -153l-135 -189q-111 106 -254 107q-92 0 -148 -43q-53 -43 -53 -115q0 -96 103 -164 q33 -23 223 -108q152 -70 221 -142q102 -104 102 -266q0 -178 -139 -293q-135 -113 -340 -113q-147 0 -276 58q-143 63 -193 168zM205 1733l92 133l278 -162l277 162l84 -131l-356 -230h-9z" />
<glyph unicode="&#x161;" horiz-adv-x="909" d="M76 135l114 154q106 -115 287 -115q121 0 121 86q0 47 -78 80q-27 10 -80 25l-90 26q-250 82 -250 273q0 131 99 208q92 72 239 72q225 0 350 -117l-88 -168q-113 88 -249 89q-51 0 -84 -25q-31 -23 -31 -55q0 -49 78 -80l172 -53q248 -78 248 -263q0 -135 -103 -215 q-100 -80 -270 -80q-119 0 -240 56q-111 47 -145 102zM137 1317l111 139l207 -188l209 184l106 -137l-313 -273h-8z" />
<glyph unicode="&#x162;" horiz-adv-x="1222" d="M20 1198v236h1182v-236h-465v-1198h-63v-72q227 -12 227 -174q0 -80 -72 -129q-74 -51 -200 -51q-166 0 -285 92l76 119q82 -68 151 -68q80 0 80 52q0 57 -84 57h-12v174h-70v1198h-465z" />
<glyph unicode="&#x163;" horiz-adv-x="737" d="M111 -340l69 111q68 -53 144 -54q80 0 79 52q0 57 -84 57h-12v168q-184 53 -184 356v828h235v-256h297v-222h-297v-335q0 -166 111 -166q70 0 141 53l72 -182q-104 -84 -256 -90v-52q213 -12 213 -174q0 -82 -72 -129q-76 -51 -211 -51q-129 0 -245 86z" />
<glyph unicode="&#x164;" horiz-adv-x="1222" d="M20 1198v236h1182v-236h-465v-1198h-252v1198h-465zM236 1733l92 133l278 -162l277 162l84 -131l-357 -230h-8z" />
<glyph unicode="&#x165;" horiz-adv-x="737" d="M111 350v828h235v-256h297v-222h-297v-335q0 -166 111 -166q70 0 141 53l72 -182q-111 -90 -273 -90q-287 0 -286 370zM444 1108q92 88 93 225q0 51 -23 101h229q12 -25 13 -72q0 -244 -203 -356z" />
<glyph unicode="&#x16a;" horiz-adv-x="1538" d="M178 608v826h252v-772q0 -449 358 -449q319 0 320 432v789h250v-840q0 -309 -172 -473q-152 -143 -398 -144q-276 0 -438 158q-172 168 -172 473zM467 1556v189h633v-189h-633z" />
<glyph unicode="&#x16b;" horiz-adv-x="1095" d="M111 358v564h235v-514q0 -211 176 -211q121 0 207 112v613h236v-922h-236v113q-111 -135 -295 -136q-143 0 -229 93q-94 100 -94 288zM254 1126v189h571v-189h-571z" />
<glyph unicode="&#x16c;" horiz-adv-x="1538" d="M178 608v826h252v-772q0 -449 358 -449q319 0 320 432v789h250v-840q0 -309 -172 -473q-152 -143 -398 -144q-276 0 -438 158q-172 168 -172 473zM377 1722l102 121q115 -129 293 -129q174 0 287 129l88 -123q-131 -211 -375 -211q-264 0 -395 213z" />
<glyph unicode="&#x16d;" horiz-adv-x="1095" d="M111 358v564h235v-514q0 -211 176 -211q121 0 207 112v613h236v-922h-236v113q-111 -135 -295 -136q-143 0 -229 93q-94 100 -94 288zM217 1278l105 117q104 -115 225 -115q141 0 229 113l82 -115q-127 -188 -321 -188q-211 0 -320 188z" />
<glyph unicode="&#x16e;" horiz-adv-x="1538" d="M178 608v826h252v-772q0 -449 358 -449q319 0 320 432v789h250v-840q0 -309 -172 -473q-152 -143 -398 -144q-276 0 -438 158q-172 168 -172 473zM483 1638q0 111 84 168q76 53 201 54q129 0 207 -54q86 -57 86 -168q0 -109 -86 -168q-80 -57 -207 -57q-125 0 -201 57 q-84 59 -84 168zM657 1638q0 -96 113 -96q117 0 117 96q0 92 -117 93q-113 0 -113 -93z" />
<glyph unicode="&#x16f;" horiz-adv-x="1095" d="M111 358v564h235v-514q0 -211 176 -211q121 0 207 112v613h236v-922h-236v113q-111 -135 -295 -136q-143 0 -229 93q-94 100 -94 288zM281 1253q-1 102 73 174t185 72q113 0 188 -72q74 -72 74 -174q0 -100 -74 -170q-76 -72 -188 -71q-111 0 -185 71q-74 70 -73 170z M432 1255q0 -48 31 -81q31 -35 80 -35q47 0 78 35q29 33 28 81q0 49 -28 82q-31 33 -78 33q-49 0 -80 -33t-31 -82z" />
<glyph unicode="&#x170;" horiz-adv-x="1538" d="M178 608v826h252v-772q0 -449 358 -449q319 0 320 432v789h250v-840q0 -309 -172 -473q-152 -143 -398 -144q-276 0 -438 158q-172 168 -172 473zM430 1591l234 275l202 -105l-336 -264zM803 1597l323 269l164 -148l-391 -221z" />
<glyph unicode="&#x171;" horiz-adv-x="1095" d="M111 358v564h235v-514q0 -211 176 -211q121 0 207 112v613h236v-922h-236v113q-111 -135 -295 -136q-143 0 -229 93q-94 100 -94 288zM240 1157l206 340l168 -125l-233 -313zM573 1157l238 320l174 -134l-270 -284z" />
<glyph unicode="&#x172;" horiz-adv-x="1538" d="M178 608v826h252v-772q0 -449 358 -449q319 0 320 432v789h250v-840q0 -489 -391 -594q-139 -66 -140 -139q0 -82 93 -82q43 0 86 20l71 -143q-66 -66 -211 -66q-117 0 -188 45q-86 49 -86 148q0 121 162 194q-262 10 -414 168q-162 166 -162 463z" />
<glyph unicode="&#x173;" horiz-adv-x="1095" d="M111 358v564h235v-514q0 -211 176 -211q121 0 207 112v613h236v-922h-11q-86 -2 -151 -45q-61 -43 -62 -94q0 -82 93 -82q43 0 86 20l71 -143q-66 -66 -211 -66q-117 0 -188 45q-86 49 -86 148q0 158 223 223v107q-111 -135 -295 -136q-143 0 -229 93q-94 100 -94 288z " />
<glyph unicode="&#x178;" horiz-adv-x="1288" d="M10 1434h287l356 -600l353 600h272l-510 -836v-598h-252v598zM254 1690q0 57 47 94q43 33 111 33q59 0 100 -33q45 -37 45 -94q0 -63 -45 -101q-41 -35 -100 -35q-68 0 -111 35q-47 37 -47 101zM729 1690q0 57 47 94q43 33 111 33q59 0 100 -33q45 -37 45 -94 q0 -63 -45 -101q-41 -35 -100 -35q-68 0 -111 35q-47 37 -47 101z" />
<glyph unicode="&#x179;" horiz-adv-x="1314" d="M82 0v172l792 1026h-751v236h1089v-174l-794 -1024h815v-236h-1151zM502 1638l438 228l88 -203l-461 -166z" />
<glyph unicode="&#x17a;" horiz-adv-x="1003" d="M86 0v170l500 530h-469v222h798v-170l-499 -533h489v-219h-819zM360 1157l215 338l185 -139l-258 -297z" />
<glyph unicode="&#x17b;" horiz-adv-x="1314" d="M82 0v172l792 1026h-751v236h1089v-174l-794 -1024h815v-236h-1151zM506 1702q0 65 49 106q45 39 113 39q61 0 106 -39q47 -41 47 -106q0 -70 -47 -113q-45 -41 -106 -41q-68 0 -113 41q-49 41 -49 113z" />
<glyph unicode="&#x17c;" horiz-adv-x="1003" d="M86 0v170l500 530h-469v222h798v-170l-499 -533h489v-219h-819zM354 1253q0 62 43 101q43 37 105 37q53 0 92 -37q43 -39 43 -101q0 -68 -43 -108q-39 -39 -92 -39q-63 0 -105 39q-43 41 -43 108z" />
<glyph unicode="&#x17d;" horiz-adv-x="1314" d="M82 0v172l792 1026h-751v236h1089v-174l-794 -1024h815v-236h-1151zM303 1733l92 133l279 -162l276 162l84 -131l-356 -230h-8z" />
<glyph unicode="&#x17e;" horiz-adv-x="1003" d="M86 0v170l500 530h-469v222h798v-170l-499 -533h489v-219h-819zM201 1317l110 139l207 -188l209 184l107 -137l-314 -273h-8z" />
<glyph unicode="&#x17f;" horiz-adv-x="528" d="M141 0v1071q0 385 328 385q176 0 258 -86l-80 -180q-45 45 -135 45q-135 0 -135 -182v-1053h-236z" />
<glyph unicode="&#x18f;" horiz-adv-x="1599" d="M96 848h1139q-37 176 -172 274t-336 99q-188 0 -338 -111l-96 188q184 158 493 158q319 0 519 -201q203 -205 202 -536q0 -336 -198 -539q-197 -203 -527 -203q-336 0 -528 234q-201 242 -158 637zM356 612q12 -168 123 -278q117 -121 299 -121q191 0 314 104 q121 102 153 295h-889z" />
<glyph unicode="&#x192;" d="M84 -360l63 186q53 -33 107 -33q109 0 139 162l131 745h-239v222h278l27 149q39 203 115 291q80 94 229 94q174 0 256 -86l-80 -180q-45 45 -135 45q-117 0 -150 -182l-22 -131h235v-222h-274l-135 -768q-35 -182 -99 -264q-76 -94 -221 -94q-152 0 -225 66z" />
<glyph unicode="&#x1dd;" horiz-adv-x="1056" d="M59 406q0 82 15 131h676q-16 96 -91 153q-74 57 -182 58q-158 0 -266 -84l-66 165q135 115 357 115q221 0 352 -133q129 -131 129 -350q0 -211 -119 -342q-127 -141 -348 -142q-197 0 -326 117q-131 121 -131 312zM303 379q-2 -90 55 -148q59 -57 160 -57q205 0 238 205 h-453z" />
<glyph unicode="&#x218;" horiz-adv-x="1132" d="M92 203l144 172q125 -162 329 -162q92 0 150 43q59 45 59 125q0 92 -102 160q-31 20 -221 110q-154 72 -224 146q-102 106 -102 264q0 168 119 278q125 117 327 117q270 0 410 -153l-135 -189q-111 106 -254 107q-92 0 -148 -43q-53 -43 -53 -115q0 -96 103 -164 q33 -23 223 -108q152 -70 221 -142q102 -104 102 -266q0 -178 -139 -293q-135 -113 -340 -113q-147 0 -276 58q-143 63 -193 168zM399 -319q88 37 88 122q0 53 -34 78l229 51q41 -25 41 -100q0 -102 -84 -174q-72 -63 -170 -80z" />
<glyph unicode="&#x219;" horiz-adv-x="909" d="M76 135l114 154q106 -115 287 -115q121 0 121 86q0 47 -78 80q-27 10 -80 25l-90 26q-250 82 -250 273q0 131 99 208q92 72 239 72q225 0 350 -117l-88 -168q-113 88 -249 89q-51 0 -84 -25q-31 -23 -31 -55q0 -49 78 -80l172 -53q248 -78 248 -263q0 -135 -103 -215 q-100 -80 -270 -80q-119 0 -240 56q-111 47 -145 102zM279 -319q88 37 88 122q0 53 -35 78l229 51q41 -25 41 -100q0 -102 -84 -174q-72 -63 -170 -80z" />
<glyph unicode="&#x21a;" horiz-adv-x="1222" d="M20 1198v236h1182v-236h-465v-1198h-252v1198h-465zM416 -319q88 37 88 122q0 53 -35 78l229 51q41 -25 41 -100q0 -102 -84 -174q-72 -63 -170 -80z" />
<glyph unicode="&#x21b;" horiz-adv-x="737" d="M111 350v828h235v-256h297v-222h-297v-335q0 -166 111 -166q70 0 141 53l72 -182q-111 -90 -273 -90q-287 0 -286 370zM172 -319q88 37 88 122q0 53 -35 78l230 51q41 -25 41 -100q0 -102 -84 -174q-72 -63 -170 -80z" />
<glyph unicode="&#x2c6;" horiz-adv-x="878" d="M123 1174l313 272h8l312 -275l-111 -139l-207 166l-209 -162z" />
<glyph unicode="&#x2da;" horiz-adv-x="765" d="M123 1253q0 102 74 174t184 72q113 0 188 -72q74 -72 74 -174q0 -100 -74 -170q-76 -72 -188 -71q-111 0 -184 71q-74 70 -74 170zM274 1255q0 -48 31 -81q31 -35 80 -35q47 0 78 35q29 33 29 81q0 49 -29 82q-31 33 -78 33q-49 0 -80 -33t-31 -82z" />
<glyph unicode="&#x2dc;" horiz-adv-x="950" d="M123 1208q113 141 248 142q49 0 123 -43q72 -43 112 -43q59 0 142 63l79 -119q-121 -133 -239 -133q-45 0 -119 43q-74 41 -121 41t-129 -57z" />
<glyph unicode="&#x401;" horiz-adv-x="1177" d="M199 0v1434h829v-236h-577v-356h516v-236h-516v-370h598v-236h-850zM244 1690q0 57 47 94q43 33 110 33q59 0 101 -33q45 -37 45 -94q0 -63 -45 -101q-41 -35 -101 -35q-68 0 -110 35q-47 37 -47 101zM719 1690q0 57 47 94q43 33 111 33q59 0 100 -33q45 -37 45 -94 q0 -63 -45 -101q-41 -35 -100 -35q-68 0 -111 35q-47 37 -47 101z" />
<glyph unicode="&#x402;" horiz-adv-x="1564" d="M20 1198v236h1182v-236h-465v-414q135 82 305 82q430 0 431 -450q0 -439 -367 -439q-170 0 -244 89l84 192q59 -45 127 -45q150 0 150 199q0 219 -228 219q-131 0 -258 -76v-555h-252v1198h-465z" />
<glyph unicode="&#x403;" horiz-adv-x="1038" d="M199 0v1434h809v-236h-557v-1198h-252zM516 1638l438 228l88 -203l-460 -166z" />
<glyph unicode="&#x404;" horiz-adv-x="1378" d="M92 717q0 328 203 534q201 205 518 205q309 0 494 -158l-113 -188q-147 111 -336 111q-203 0 -334 -99q-133 -98 -170 -274h641v-236h-645q33 -195 182 -301q139 -98 336 -98q201 0 363 125l92 -211q-174 -150 -475 -150q-346 0 -549 199q-207 199 -207 541z" />
<glyph unicode="&#x405;" horiz-adv-x="1132" d="M92 203l144 172q125 -162 329 -162q92 0 150 43q59 45 59 125q0 92 -102 160q-31 20 -221 110q-154 72 -224 146q-102 106 -102 264q0 168 119 278q125 117 327 117q270 0 410 -153l-135 -189q-111 106 -254 107q-92 0 -148 -43q-53 -43 -53 -115q0 -96 103 -164 q33 -23 223 -108q152 -70 221 -142q102 -104 102 -266q0 -178 -139 -293q-135 -113 -340 -113q-147 0 -276 58q-143 63 -193 168z" />
<glyph unicode="&#x406;" horiz-adv-x="710" d="M229 0v1434h252v-1434h-252z" />
<glyph unicode="&#x407;" horiz-adv-x="710" d="M53 1690q0 57 41 92q37 35 94 35q53 0 91 -35q39 -35 38 -92q0 -63 -38 -101q-37 -35 -91 -35q-57 0 -94 35q-41 37 -41 101zM229 0v1434h252v-1434h-252zM395 1690q0 57 41 92q39 35 96 35q51 0 89 -35q39 -37 38 -92q0 -63 -38 -101q-35 -35 -89 -35q-137 0 -137 136z " />
<glyph unicode="&#x408;" horiz-adv-x="798" d="M10 66l82 192q59 -45 127 -45q129 0 129 168v1053h252v-1096q0 -360 -346 -361q-168 0 -244 89z" />
<glyph unicode="&#x409;" horiz-adv-x="2070" d="M45 0l6 250q113 -14 178 119q98 203 142 778l20 287h903v-492q80 10 158 10q260 0 397 -127q129 -119 129 -336q0 -231 -151 -362q-154 -131 -428 -131l-355 4v1198h-417l-29 -270q-59 -586 -203 -793q-117 -168 -350 -135zM1294 238l133 -7q285 0 285 252 q0 233 -280 234q-46 0 -138 -10v-469z" />
<glyph unicode="&#x40a;" horiz-adv-x="2113" d="M199 0v1434h252v-537h634v537h250v-527q88 8 160 8q260 0 397 -122q129 -115 129 -322q0 -219 -151 -346q-156 -129 -428 -129l-357 4v662h-634v-662h-252zM1335 238l135 -7q285 0 285 234q0 215 -280 215q-68 0 -140 -10v-432z" />
<glyph unicode="&#x40b;" horiz-adv-x="1566" d="M20 1198v236h1182v-236h-465v-414q129 82 307 82q184 0 297 -100q133 -119 134 -356v-410h-250v336q0 295 -246 295q-123 0 -242 -78v-553h-252v1198h-465z" />
<glyph unicode="&#x40c;" horiz-adv-x="1376" d="M199 0v1434h252v-680l565 680h303l-590 -668l627 -766h-320l-585 739v-739h-252zM608 1638l439 228l88 -203l-461 -166z" />
<glyph unicode="&#x40e;" horiz-adv-x="1398" d="M25 1434h284l469 -801l342 801h254l-487 -1100q-150 -334 -389 -334q-125 0 -197 57l88 213q51 -35 107 -34q94 0 141 100l20 49zM319 1782h236q25 -119 174 -119q154 0 164 119h235q-4 -131 -116 -213q-113 -80 -283 -80q-182 0 -291 82q-109 78 -119 211z" />
<glyph unicode="&#x40f;" horiz-adv-x="1519" d="M199 0v1434h252v-1198h618v1198h252v-1434h-444v-313h-236v313h-442z" />
<glyph unicode="&#x410;" horiz-adv-x="1464" d="M14 0l607 1438h221l606 -1438h-268l-150 367h-612l-150 -367h-254zM514 602h420l-209 510z" />
<glyph unicode="&#x411;" horiz-adv-x="1257" d="M199 0v1434h837v-236h-585v-319q84 12 192 12q223 0 352 -117t129 -315q0 -223 -143 -344q-145 -123 -410 -123q-92 0 -217 4q-123 4 -155 4zM451 236q115 -8 159 -9q264 0 264 213q0 215 -251 215q-76 0 -172 -12v-407z" />
<glyph unicode="&#x412;" horiz-adv-x="1263" d="M199 2v1428q201 10 413 10q471 0 471 -355q0 -229 -204 -325v-4q252 -61 251 -334q0 -213 -151 -326q-141 -104 -381 -104q-260 0 -399 10zM451 238q88 -10 165 -11q262 0 263 207q0 182 -250 182h-178v-378zM451 836h170q94 0 149 47q63 49 64 143q0 178 -226 178 q-89 0 -157 -6v-362z" />
<glyph unicode="&#x413;" horiz-adv-x="1038" d="M199 0v1434h809v-236h-557v-1198h-252z" />
<glyph unicode="&#x414;" horiz-adv-x="1548" d="M25 236h153q190 236 221 911l15 287h889v-1198h194v-492h-235v256h-1002v-256h-235v492zM455 236h598v962h-396l-22 -250q-39 -537 -180 -712z" />
<glyph unicode="&#x415;" horiz-adv-x="1177" d="M199 0v1434h829v-236h-577v-356h516v-236h-516v-370h598v-236h-850z" />
<glyph unicode="&#x416;" horiz-adv-x="1953" d="M20 0l562 748l-539 686h289l520 -684v684h250v-684l518 684h291l-539 -684l561 -750h-291l-540 743v-743h-250v743l-543 -743h-289z" />
<glyph unicode="&#x417;" horiz-adv-x="1198" d="M72 219l137 170q154 -176 342 -176q113 0 184 51q80 57 80 162q0 188 -254 188h-147v236h139q84 0 143 49q63 53 64 139q0 182 -209 183q-174 0 -291 -156l-145 168q160 223 465 223q195 0 309 -100q121 -106 121 -293q0 -203 -193 -315v-7q248 -61 248 -340 q0 -190 -154 -311q-143 -113 -348 -113q-331 0 -491 242z" />
<glyph unicode="&#x418;" horiz-adv-x="1622" d="M199 0v1434h252v-1020l751 1020h221v-1434h-252v1018l-751 -1018h-221z" />
<glyph unicode="&#x419;" horiz-adv-x="1622" d="M199 0v1434h252v-1020l751 1020h221v-1434h-252v1018l-751 -1018h-221zM426 1782h236q25 -119 174 -119q154 0 163 119h236q-4 -131 -117 -213q-113 -80 -282 -80q-182 0 -291 82q-109 78 -119 211z" />
<glyph unicode="&#x41a;" horiz-adv-x="1376" d="M199 0v1434h252v-680l565 680h303l-590 -668l627 -766h-320l-585 739v-739h-252z" />
<glyph unicode="&#x41b;" horiz-adv-x="1492" d="M45 0l6 250q113 -14 178 119q98 203 142 778l20 287h903v-1434h-250v1198h-417l-29 -270q-59 -586 -203 -793q-117 -168 -350 -135z" />
<glyph unicode="&#x41c;" horiz-adv-x="1845" d="M199 0v1434h254l489 -670l467 670h238v-1434h-250v1036l-453 -637h-37l-456 631v-1030h-252z" />
<glyph unicode="&#x41d;" horiz-adv-x="1554" d="M199 0v1434h252v-586h655v586h250v-1434h-250v612h-655v-612h-252z" />
<glyph unicode="&#x41e;" horiz-adv-x="1677" d="M92 717q0 315 207 526q213 213 539 213q324 0 534 -203q213 -207 213 -536q0 -322 -213 -531t-534 -209q-324 0 -533 203q-213 207 -213 537zM358 717q1 -216 140 -359q137 -145 340 -145q221 0 354 145q127 141 127 359q0 221 -139 362q-137 141 -342 142 q-207 0 -342 -142q-137 -141 -138 -362z" />
<glyph unicode="&#x41f;" horiz-adv-x="1540" d="M199 0v1434h1142v-1434h-251v1198h-639v-1198h-252z" />
<glyph unicode="&#x420;" horiz-adv-x="1253" d="M199 0v1434l407 4q293 0 436 -142q119 -119 119 -319q0 -195 -133 -324q-145 -141 -391 -141q-125 0 -186 6v-518h-252zM451 758q98 -10 178 -10q119 0 188 55q78 61 78 176q0 223 -264 223q-45 0 -180 -4v-440z" />
<glyph unicode="&#x421;" horiz-adv-x="1341" d="M92 717q0 322 189 524q201 215 544 215q276 0 437 -145l-113 -187q-143 96 -324 97q-203 0 -333 -136q-133 -139 -134 -368q0 -223 138 -365q139 -139 358 -139q190 0 340 115l96 -189q-152 -162 -459 -162q-330 0 -534 203q-205 203 -205 537z" />
<glyph unicode="&#x422;" horiz-adv-x="1222" d="M20 1198v236h1182v-236h-465v-1198h-252v1198h-465z" />
<glyph unicode="&#x423;" horiz-adv-x="1398" d="M25 1434h284l469 -801l342 801h254l-487 -1100q-150 -334 -389 -334q-125 0 -197 57l88 213q51 -35 107 -34q94 0 141 100l20 49z" />
<glyph unicode="&#x424;" horiz-adv-x="1718" d="M72 737q0 264 184 414q176 145 477 149v150h252v-150q299 -4 477 -151q184 -152 185 -412q0 -264 -185 -415q-178 -145 -477 -148v-190h-252v190q-301 0 -479 145q-182 152 -182 418zM338 737q0 -327 395 -331v663q-193 -2 -295 -94q-100 -88 -100 -238zM985 406 q395 4 395 331q0 150 -96 238q-104 92 -299 94v-663z" />
<glyph unicode="&#x425;" horiz-adv-x="1370" d="M20 0l502 731l-479 703h295l352 -519l346 519h295l-483 -703l502 -731h-295l-371 539l-369 -539h-295z" />
<glyph unicode="&#x426;" horiz-adv-x="1576" d="M199 0v1434h252v-1198h628v1198h252v-1198h195v-492h-236v256h-1091z" />
<glyph unicode="&#x427;" horiz-adv-x="1366" d="M137 948v486h252v-414q0 -295 252 -295q139 0 274 92v617h252v-1434h-252v588q-135 -98 -342 -99q-184 0 -299 101q-137 121 -137 358z" />
<glyph unicode="&#x428;" horiz-adv-x="2041" d="M199 0v1434h252v-1198h444v1198h252v-1198h444v1198h252v-1434h-1644z" />
<glyph unicode="&#x429;" horiz-adv-x="2088" d="M199 0v1434h252v-1198h444v1198h252v-1198h444v1198h252v-1198h195v-492h-236v256h-1603z" />
<glyph unicode="&#x42a;" horiz-adv-x="1378" d="M14 1198v236h566v-492q82 10 165 10q270 0 410 -127q131 -119 131 -336q0 -229 -153 -360q-158 -133 -443 -133l-360 4v1198h-316zM580 238l141 -7q299 0 299 252q0 233 -295 234q-49 0 -145 -10v-469z" />
<glyph unicode="&#x42b;" horiz-adv-x="1769" d="M199 0v1434h252v-492q80 10 159 10q260 0 396 -127q129 -119 129 -336q0 -229 -152 -360q-156 -133 -428 -133zM451 238l135 -7q283 0 282 252q0 233 -278 234q-43 0 -139 -10v-469zM1321 0v1434h250v-1434h-250z" />
<glyph unicode="&#x42c;" horiz-adv-x="1247" d="M199 0v1434h252v-492q80 10 163 10q270 0 410 -127q131 -119 131 -336q0 -229 -154 -360q-158 -133 -440 -133zM451 238l139 -7q299 0 299 252q0 233 -295 234q-47 0 -143 -10v-469z" />
<glyph unicode="&#x42d;" horiz-adv-x="1378" d="M55 127l109 211q162 -125 368 -125q193 0 324 100q141 106 172 299h-645v236h639q-37 178 -174 276q-137 96 -342 97q-188 0 -336 -111l-98 188q184 158 493 158q319 0 518 -201q203 -205 203 -536q0 -338 -203 -539q-203 -203 -546 -203q-307 0 -482 150z" />
<glyph unicode="&#x42e;" horiz-adv-x="2213" d="M199 0v1434h252v-586h243q41 268 228 436q193 172 473 172q322 0 524 -203q203 -205 203 -536q0 -324 -203 -531q-205 -209 -524 -209q-276 0 -471 173q-201 176 -234 462h-239v-612h-252zM950 717q0 -214 131 -359t322 -145q217 0 340 145q113 137 112 359 q0 223 -124 362q-125 141 -328 142q-195 0 -324 -142q-129 -141 -129 -362z" />
<glyph unicode="&#x42f;" horiz-adv-x="1294" d="M35 0l366 547q-252 127 -251 397q0 215 139 346q156 150 450 150l357 -6v-1434h-250v496h-207l-322 -496h-282zM416 961q0 -92 61 -156q55 -57 139 -74h230v467q-104 6 -158 6q-123 0 -199 -67q-74 -68 -73 -176z" />
<glyph unicode="&#x430;" horiz-adv-x="948" d="M72 270q0 145 98 226q90 74 238 73q127 0 208 -59q10 238 -172 238q-102 0 -241 -64l-60 172q150 88 326 88q369 0 369 -383v-561h-205v106q-84 -119 -273 -118q-129 0 -206 73q-82 78 -82 209zM307 295q0 -109 131 -109q119 0 178 84v95q-59 45 -161 45 q-147 0 -148 -115z" />
<glyph unicode="&#x431;" horiz-adv-x="1122" d="M66 561q0 592 348 742q438 186 409 153l123 -192q-70 -82 -201 -115q-190 -45 -245 -72q-172 -80 -199 -344h4q98 172 324 172q190 0 305 -123t115 -329q0 -199 -134 -334q-137 -141 -350 -142q-231 0 -366 158q-133 158 -133 426zM317 512q3 -137 66 -225 q68 -90 176 -90q109 0 174 73q63 68 64 172q0 106 -58 174q-61 70 -170 70q-195 0 -252 -174z" />
<glyph unicode="&#x432;" horiz-adv-x="1028" d="M131 0v922q399 10 363 10q418 0 417 -242q0 -80 -51 -139q-49 -55 -121 -66v-4q197 -47 197 -213q0 -279 -438 -278q-61 0 -195 6q-133 4 -172 4zM367 186q139 -8 155 -8q166 0 166 107q0 106 -174 106h-147v-205zM367 535h153q141 0 142 106q0 100 -148 100 q-98 0 -147 -4v-202z" />
<glyph unicode="&#x433;" horiz-adv-x="765" d="M131 0v922h619v-222h-383v-700h-236z" />
<glyph unicode="&#x434;" horiz-adv-x="1138" d="M20 -215v434h117q109 143 129 481l15 222h680v-703h153v-434h-221v215h-653v-215h-220zM383 219h342v481h-225l-6 -94q-25 -268 -111 -387z" />
<glyph unicode="&#x435;" horiz-adv-x="1056" d="M74 461q0 207 131 342q135 141 356 141q182 0 307 -117q129 -123 129 -311q0 -78 -14 -127h-666q31 -215 277 -215q156 0 260 84l68 -166q-135 -115 -353 -115q-223 0 -358 134q-137 133 -137 350zM309 547h453q2 86 -53 143q-59 57 -158 58q-201 0 -242 -201z" />
<glyph unicode="&#x436;" horiz-adv-x="1452" d="M14 0l326 475l-307 447h286l275 -447l-299 -475h-281zM604 0v922h236v-922h-236zM850 475l283 447h278l-305 -447l330 -475h-279z" />
<glyph unicode="&#x437;" horiz-adv-x="966" d="M55 131l121 148q102 -113 260 -113q188 0 189 113q0 104 -140 104h-172v158h162q55 0 90 34q33 31 33 78q0 100 -162 101q-127 0 -252 -107l-98 141q133 156 395 156q180 0 277 -72q92 -68 92 -190q0 -147 -170 -205v-4q195 -37 194 -217q0 -129 -114 -203 q-115 -76 -303 -76q-281 0 -402 154z" />
<glyph unicode="&#x438;" horiz-adv-x="1163" d="M131 0v922h236v-584l430 584h235v-922h-235v584l-430 -584h-236z" />
<glyph unicode="&#x439;" horiz-adv-x="1163" d="M131 0v922h236v-584l430 584h235v-922h-235v584l-430 -584h-236zM268 1382h215q0 -150 107 -149q98 0 98 149h215q0 -139 -80 -225q-84 -92 -233 -92q-164 0 -246 92q-76 82 -76 225z" />
<glyph unicode="&#x43a;" horiz-adv-x="1054" d="M131 0v922h236v-922h-236zM375 465l332 457h297l-355 -439l398 -483h-308z" />
<glyph unicode="&#x43b;" horiz-adv-x="1103" d="M51 211q74 -8 127 76q68 106 82 348l14 287h699v-922h-236v686h-243l-7 -98q-33 -360 -131 -492q-88 -115 -284 -114z" />
<glyph unicode="&#x43c;" horiz-adv-x="1292" d="M131 0v922h213l313 -385l297 385h207v-922h-235v563l-273 -344h-6l-280 344v-563h-236z" />
<glyph unicode="&#x43d;" horiz-adv-x="1136" d="M131 0v922h236v-349h403v349h236v-922h-236v352h-403v-352h-236z" />
<glyph unicode="&#x43e;" horiz-adv-x="1150" d="M74 461q0 211 137 346q139 137 364 137t365 -137q137 -135 137 -346t-137 -346q-139 -137 -365 -138q-225 0 -364 138q-137 135 -137 346zM326 461q-1 -115 71 -191q70 -74 178 -73q111 0 181 71q72 74 71 193q0 115 -71 190q-72 72 -181 72q-106 0 -176 -72 q-74 -74 -73 -190z" />
<glyph unicode="&#x43f;" horiz-adv-x="1126" d="M131 0v922h864v-922h-235v700h-393v-700h-236z" />
<glyph unicode="&#x440;" horiz-adv-x="1142" d="M131 -410v1332h236v-88q102 111 284 110q188 0 305 -133q113 -129 113 -336q0 -215 -133 -354q-137 -143 -354 -144q-137 0 -215 46v-433h-236zM367 250q82 -53 194 -53q119 0 191 77q68 76 67 195q0 113 -61 182q-66 72 -180 72q-121 0 -211 -100v-373z" />
<glyph unicode="&#x441;" horiz-adv-x="997" d="M74 461q0 205 133 342q137 141 344 141q246 0 371 -125l-111 -186q-92 90 -229 90q-102 0 -176 -70q-80 -76 -80 -192q0 -119 82 -193q76 -72 184 -71q135 0 237 112l111 -172q-119 -160 -367 -160q-225 0 -362 134q-137 133 -137 350z" />
<glyph unicode="&#x442;" horiz-adv-x="911" d="M35 686v236h839v-236h-301v-686h-235v686h-303z" />
<glyph unicode="&#x443;" horiz-adv-x="1030" d="M10 922h283l215 -504q12 -29 45 -133q16 90 33 135l166 502h268l-363 -922q-98 -240 -178 -328q-74 -82 -178 -82q-100 0 -199 72l76 178q55 -33 96 -33q84 0 142 144l20 49z" />
<glyph unicode="&#x444;" horiz-adv-x="1406" d="M74 461q0 199 129 336q139 147 368 147h15v490h235v-490h17q231 0 366 -139q129 -133 129 -344q0 -215 -123 -344q-131 -139 -372 -140h-17v-387h-235v387h-13q-236 0 -370 140q-129 131 -129 344zM326 461q0 -119 63 -191q68 -74 191 -73h6v526h-17q-123 0 -186 -78 q-57 -70 -57 -184zM821 197h8q123 0 191 73q61 70 61 191q0 111 -59 182q-66 80 -184 80h-17v-526z" />
<glyph unicode="&#x445;" horiz-adv-x="1069" d="M35 0l327 469l-307 453h289l195 -306l200 306h273l-307 -441l327 -481h-287l-215 332l-223 -332h-272z" />
<glyph unicode="&#x446;" horiz-adv-x="1159" d="M131 0v922h236v-703h378v703h236v-703h154v-434h-222v215h-782z" />
<glyph unicode="&#x447;" horiz-adv-x="1005" d="M76 627v295h252v-267q0 -170 149 -170q98 0 162 37v400h235v-922h-235v317q-100 -53 -229 -53q-334 0 -334 363z" />
<glyph unicode="&#x448;" horiz-adv-x="1490" d="M131 0v922h236v-703h260v703h235v-703h262v703h236v-922h-1229z" />
<glyph unicode="&#x449;" horiz-adv-x="1538" d="M131 0v922h236v-703h260v703h235v-703h262v703h236v-703h153v-434h-221v215h-1161z" />
<glyph unicode="&#x44a;" horiz-adv-x="1097" d="M31 700v222h475v-252h129q406 0 405 -320q0 -150 -94 -241q-111 -109 -330 -109h-346v700h-239zM506 205h106q176 0 176 137q0 139 -174 139h-108v-276z" />
<glyph unicode="&#x44b;" horiz-adv-x="1384" d="M131 0v922h236v-252h114q406 0 406 -320q0 -150 -94 -241q-111 -109 -330 -109h-332zM367 205h92q178 0 178 137q0 139 -176 139h-94v-276zM1018 0v922h235v-922h-235z" />
<glyph unicode="&#x44c;" horiz-adv-x="956" d="M131 0v922h236v-252h127q406 0 405 -320q0 -150 -94 -241q-111 -109 -330 -109h-344zM367 205h104q178 0 178 137q0 139 -176 139h-106v-276z" />
<glyph unicode="&#x44d;" horiz-adv-x="1015" d="M68 115l110 155q100 -88 258 -88q225 0 262 205h-411v158h409q-45 195 -264 194q-133 0 -264 -96l-96 164q129 137 356 137q236 0 375 -131t139 -352q0 -209 -129 -342q-135 -141 -362 -142q-250 0 -383 138z" />
<glyph unicode="&#x44e;" horiz-adv-x="1581" d="M131 0v922h250v-334h164q37 162 157 258q127 98 310 98q221 0 360 -137q135 -135 135 -346q0 -209 -137 -346q-139 -137 -358 -138q-188 0 -316 105q-123 100 -155 270h-160v-352h-250zM797 461q0 -114 63 -182q59 -66 158 -66q100 0 162 66q61 68 61 182q0 115 -59 180 q-61 68 -164 68q-98 0 -160 -68q-61 -68 -61 -180z" />
<glyph unicode="&#x44f;" horiz-adv-x="1013" d="M55 0l246 328q-178 63 -178 266q0 145 104 231q119 96 355 97h301v-922h-236v276h-131l-190 -276h-271zM375 578q0 -56 47 -93q45 -35 102 -34h123v266h-104q-80 0 -127 -43q-41 -39 -41 -96z" />
<glyph unicode="&#x451;" horiz-adv-x="1056" d="M74 461q0 207 131 342q135 141 356 141q182 0 307 -117q129 -123 129 -311q0 -78 -14 -127h-666q31 -215 277 -215q156 0 260 84l68 -166q-135 -115 -353 -115q-223 0 -358 134q-137 133 -137 350zM223 1227q0 59 39 96q39 35 94 35q49 0 84 -35q39 -37 39 -96 q0 -63 -39 -103q-35 -35 -84 -34q-55 0 -94 34q-39 39 -39 103zM309 547h453q2 86 -53 143q-59 57 -158 58q-201 0 -242 -201zM631 1227q0 59 39 96q37 35 92 35q49 0 86 -35q37 -37 37 -96q0 -63 -37 -103q-35 -35 -86 -34q-55 0 -92 34q-39 39 -39 103z" />
<glyph unicode="&#x452;" horiz-adv-x="1208" d="M14 885v190h242v359h236v-359h323v-190h-323v-242q104 100 264 100q379 0 379 -395q0 -522 -338 -758h-252q352 285 352 701q0 231 -201 231q-121 0 -204 -84v-438h-236v885h-242z" />
<glyph unicode="&#x453;" horiz-adv-x="765" d="M131 0v922h619v-222h-383v-700h-236zM340 1157l215 338l184 -139l-258 -297z" />
<glyph unicode="&#x454;" horiz-adv-x="1013" d="M74 461q0 221 139 352t375 131q227 0 356 -137l-96 -164q-111 96 -264 96q-219 0 -267 -194h412v-158h-414q43 -205 281 -205q143 0 244 88l110 -155q-137 -137 -368 -138q-233 0 -375 142q-133 133 -133 342z" />
<glyph unicode="&#x455;" horiz-adv-x="909" d="M76 135l114 154q106 -115 287 -115q121 0 121 86q0 47 -78 80q-27 10 -80 25l-90 26q-250 82 -250 273q0 131 99 208q92 72 239 72q225 0 350 -117l-88 -168q-113 88 -249 89q-51 0 -84 -25q-31 -23 -31 -55q0 -49 78 -80l172 -53q248 -78 248 -263q0 -135 -103 -215 q-100 -80 -270 -80q-119 0 -240 56q-111 47 -145 102z" />
<glyph unicode="&#x456;" horiz-adv-x="567" d="M141 1253q0 62 43 101q43 37 105 37q53 0 92 -37q43 -39 43 -101q0 -68 -43 -108q-39 -39 -92 -39q-63 0 -105 39q-43 41 -43 108zM166 0v922h235v-922h-235z" />
<glyph unicode="&#x457;" horiz-adv-x="645" d="M51 1223q0 114 121 114q43 0 76 -30q35 -33 35 -84q0 -55 -35 -90q-31 -31 -76 -31q-121 0 -121 121zM231 0v922h236v-922h-236zM362 1223q0 51 37 84q33 31 84 30q45 0 78 -30q33 -33 33 -84q0 -55 -33 -90q-33 -31 -78 -31q-121 0 -121 121z" />
<glyph unicode="&#x458;" horiz-adv-x="581" d="M-100 -360l63 186q53 -33 105 -33q111 0 110 160v969h236v-990q0 -358 -289 -358q-152 0 -225 66zM156 1253q0 62 43 101q43 37 104 37q53 0 92 -37q43 -39 43 -101q0 -68 -43 -108q-39 -39 -92 -39q-63 0 -104 39q-43 41 -43 108z" />
<glyph unicode="&#x459;" horiz-adv-x="1519" d="M51 211q74 -8 127 76q68 106 82 348l14 287h699v-252h86q406 0 405 -320q0 -150 -94 -241q-111 -109 -330 -109h-303v686h-243l-7 -98q-33 -360 -131 -492q-88 -115 -284 -114zM973 205h63q176 0 176 137q0 139 -174 139h-65v-276z" />
<glyph unicode="&#x45a;" horiz-adv-x="1554" d="M131 0v922h236v-338h403v338h236v-263h86q406 0 405 -313q0 -150 -94 -240q-111 -106 -330 -106h-303v362h-403v-362h-236zM1006 205h63q178 0 178 133t-176 133h-65v-266z" />
<glyph unicode="&#x45b;" horiz-adv-x="1208" d="M14 885v190h242v359h236v-359h323v-190h-323v-242q104 100 264 100q379 0 379 -403v-340h-236v309q0 213 -203 213q-121 0 -204 -84v-438h-236v885h-242z" />
<glyph unicode="&#x45c;" horiz-adv-x="1054" d="M131 0v922h236v-922h-236zM375 465l332 457h297l-355 -439l398 -483h-308zM387 1157l215 338l184 -139l-258 -297z" />
<glyph unicode="&#x45e;" horiz-adv-x="1030" d="M10 922h283l215 -504q12 -29 45 -133q16 90 33 135l166 502h268l-363 -922q-98 -240 -178 -328q-74 -82 -178 -82q-100 0 -199 72l76 178q55 -33 96 -33q84 0 142 144l20 49zM211 1382h215q0 -150 106 -149q98 0 99 149h215q0 -139 -80 -225q-84 -92 -234 -92 q-164 0 -245 92q-76 82 -76 225z" />
<glyph unicode="&#x45f;" horiz-adv-x="1105" d="M131 0v922h236v-703h372v703h236v-922h-311v-242h-222v242h-311z" />
<glyph unicode="&#x462;" horiz-adv-x="1327" d="M31 1034v236h248v164h249v-164h303v-236h-303v-153q82 10 166 10q541 0 541 -432q0 -225 -154 -344t-442 -119l-360 4v1034h-248zM528 238l142 -7q150 0 219 45q80 51 80 177q0 203 -295 202q-50 0 -146 -10v-407z" />
<glyph unicode="&#x463;" horiz-adv-x="1058" d="M14 731v191h242v512h236v-512h278v-191h-278v-123h104q406 0 405 -289q0 -319 -423 -319h-322v731h-242zM492 188h81q178 0 179 123q0 123 -177 123h-83v-246z" />
<glyph unicode="&#x472;" horiz-adv-x="1677" d="M92 717q0 315 207 526q213 213 539 213q324 0 534 -203q213 -207 213 -536q0 -322 -213 -531t-534 -209q-324 0 -533 203q-213 207 -213 537zM369 829q131 84 254 84q98 0 237 -73q141 -76 232 -76q109 0 213 84q-39 168 -168 270t-299 103q-178 0 -308 -107 q-127 -109 -161 -285zM373 584q41 -166 168 -269q129 -102 297 -102q193 0 321 115q121 109 152 288q-129 -74 -238 -73q-96 0 -233 75q-135 76 -217 76q-121 1 -250 -110z" />
<glyph unicode="&#x473;" horiz-adv-x="1181" d="M74 461q0 211 139 346q141 137 379 137q236 0 379 -137q137 -135 137 -346t-137 -346q-143 -137 -379 -138q-238 0 -379 138q-139 135 -139 346zM315 532q72 57 140 58q70 0 163 -49q94 -51 132 -52q67 1 114 50q-23 104 -102 161q-74 53 -170 54q-100 0 -174 -54 q-82 -59 -103 -168zM319 373q47 -207 273 -207q231 0 272 221q-66 -57 -145 -57q-66 0 -150 51q-82 51 -125 51q-66 0 -125 -59z" />
<glyph unicode="&#x474;" horiz-adv-x="1353" d="M-6 1434h268l424 -1061l266 774q68 199 156 262q98 72 287 23l-33 -220q-82 27 -127 -20q-33 -37 -82 -170l-379 -1026h-190z" />
<glyph unicode="&#x475;" horiz-adv-x="1007" d="M-6 922h280l175 -396q43 -88 69 -207q27 115 64 211l61 162q61 164 135 211q90 61 271 15l-35 -222q-72 29 -115 -12q-31 -29 -76 -135l-225 -553h-176z" />
<glyph unicode="&#x490;" horiz-adv-x="1038" d="M199 0v1434h573v239h236v-475h-557v-1198h-252z" />
<glyph unicode="&#x491;" horiz-adv-x="765" d="M131 0v922h399v198h220v-420h-383v-700h-236z" />
<glyph unicode="&#x1e9e;" horiz-adv-x="1380" d="M199 -2v958q0 254 135 383q125 117 346 117q293 0 477 -254l-276 -352q391 -211 391 -512q0 -158 -119 -264q-109 -96 -248 -97q-211 0 -354 132l108 196q111 -92 191 -92q66 0 108 43q47 47 48 121q-1 101 -132 207q-74 61 -290 190l270 371q-53 76 -184 76 q-219 0 -219 -248v-975h-252z" />
<glyph unicode="&#x2000;" horiz-adv-x="933" />
<glyph unicode="&#x2001;" horiz-adv-x="1866" />
<glyph unicode="&#x2002;" horiz-adv-x="933" />
<glyph unicode="&#x2003;" horiz-adv-x="1866" />
<glyph unicode="&#x2004;" horiz-adv-x="622" />
<glyph unicode="&#x2005;" horiz-adv-x="466" />
<glyph unicode="&#x2006;" horiz-adv-x="311" />
<glyph unicode="&#x2007;" horiz-adv-x="311" />
<glyph unicode="&#x2008;" horiz-adv-x="233" />
<glyph unicode="&#x2009;" horiz-adv-x="373" />
<glyph unicode="&#x200a;" horiz-adv-x="103" />
<glyph unicode="&#x2010;" horiz-adv-x="770" d="M127 451v219h516v-219h-516z" />
<glyph unicode="&#x2011;" horiz-adv-x="770" d="M127 451v219h516v-219h-516z" />
<glyph unicode="&#x2012;" horiz-adv-x="1226" d="M174 623v204h879v-204h-879z" />
<glyph unicode="&#x2013;" horiz-adv-x="1226" d="M174 451v204h879v-204h-879z" />
<glyph unicode="&#x2014;" horiz-adv-x="1667" d="M174 451v204h1319v-204h-1319z" />
<glyph unicode="&#x2015;" horiz-adv-x="1667" d="M174 451v204h1319v-204h-1319z" />
<glyph unicode="&#x2018;" horiz-adv-x="493" d="M96 1202q0 233 205 352l109 -100q-92 -76 -93 -201q0 -80 48 -127l-199 -114q-70 74 -70 190z" />
<glyph unicode="&#x2019;" horiz-adv-x="493" d="M84 1104q92 76 92 199q0 80 -47 127l199 116q70 -74 69 -190q0 -238 -204 -352z" />
<glyph unicode="&#x201a;" horiz-adv-x="493" d="M84 -258q92 76 92 199q0 80 -47 127l199 116q70 -74 69 -190q0 -238 -204 -352z" />
<glyph unicode="&#x201c;" horiz-adv-x="827" d="M96 1202q0 233 205 352l109 -100q-92 -76 -93 -201q0 -80 48 -127l-199 -114q-70 74 -70 190zM428 1202q0 233 205 352l108 -100q-92 -76 -92 -201q0 -80 47 -127l-198 -114q-70 74 -70 190z" />
<glyph unicode="&#x201d;" horiz-adv-x="827" d="M84 1104q92 76 92 199q0 80 -47 127l199 116q70 -74 69 -190q0 -238 -204 -352zM416 1104q92 76 92 199q0 80 -47 127l198 116q70 -74 70 -190q0 -238 -205 -352z" />
<glyph unicode="&#x201e;" horiz-adv-x="827" d="M84 -258q92 76 92 199q0 80 -47 127l199 116q70 -74 69 -190q0 -238 -204 -352zM416 -258q92 76 92 199q0 80 -47 127l198 116q70 -74 70 -190q0 -238 -205 -352z" />
<glyph unicode="&#x2020;" horiz-adv-x="1005" d="M82 809v205h311v420h219v-420h312v-205h-312v-1014h-219v1014h-311z" />
<glyph unicode="&#x2021;" horiz-adv-x="1005" d="M82 276v205h311v328h-311v205h311v420h219v-420h312v-205h-312v-328h312v-205h-312v-481h-219v481h-311z" />
<glyph unicode="&#x2022;" horiz-adv-x="583" d="M51 541q0 100 72 170q70 72 168 71q98 0 170 -71q72 -70 71 -170q0 -96 -71 -168q-72 -72 -170 -72t-168 72q-72 72 -72 168z" />
<glyph unicode="&#x2026;" horiz-adv-x="1767" d="M113 154q0 57 43 102q47 49 120 49q63 0 109 -49q41 -45 41 -102q0 -66 -41 -113q-45 -51 -109 -51q-74 0 -120 51q-43 47 -43 113zM727 154q0 57 43 102q47 49 121 49q63 0 108 -49q41 -45 41 -102q0 -66 -41 -113q-45 -51 -108 -51q-74 0 -121 51q-43 47 -43 113z M1341 154q0 57 43 102q47 49 121 49q63 0 109 -49q41 -45 41 -102q0 -66 -41 -113q-45 -51 -109 -51q-74 0 -121 51q-43 47 -43 113z" />
<glyph unicode="&#x202f;" horiz-adv-x="373" />
<glyph unicode="&#x2030;" horiz-adv-x="2754" d="M76 1087q-1 165 114 267q113 98 289 98t289 -98q115 -102 115 -267q0 -164 -115 -266q-113 -100 -289 -100t-289 100q-115 102 -114 266zM297 1087q0 -80 53 -129q51 -47 129 -47q82 0 133 47q51 49 52 129q0 78 -54 127q-51 47 -131 48q-78 0 -129 -48q-53 -49 -53 -127 zM348 72l1034 1384l134 -100l-1033 -1379zM981 346q0 164 115 266q113 98 288 99q176 0 289 -99q115 -102 115 -266t-115 -266q-113 -100 -289 -100t-288 100q-115 102 -115 266zM1202 346q0 -80 53 -129q51 -47 129 -47q82 0 134 47q51 49 51 129q0 78 -53 127 q-51 47 -132 47q-78 0 -129 -47q-53 -49 -53 -127zM1870 346q0 164 115 266q113 98 288 99q176 0 289 -99q115 -102 115 -266t-115 -266q-113 -100 -289 -100t-288 100q-115 102 -115 266zM2091 346q0 -80 53 -129q51 -47 129 -47q82 0 133 47q51 49 52 129q0 78 -54 127 q-51 47 -131 47q-78 0 -129 -47q-53 -49 -53 -127z" />
<glyph unicode="&#x2039;" horiz-adv-x="718" d="M76 508v8l403 463l154 -137l-285 -330l283 -334l-160 -133z" />
<glyph unicode="&#x203a;" horiz-adv-x="718" d="M86 842l154 137l403 -463v-8l-395 -463l-160 133l283 334z" />
<glyph unicode="&#x2044;" horiz-adv-x="430" d="M-369 72l1035 1384l133 -100l-1032 -1379z" />
<glyph unicode="&#x205f;" horiz-adv-x="466" />
<glyph unicode="&#x20ac;" d="M37 813l72 191h153q72 207 240 325q176 127 422 127q166 0 270 -57l-88 -217q-74 39 -184 39q-252 0 -375 -217h512l-72 -191h-500q-6 -45 -6 -96q0 -49 4 -72h455l-63 -190h-334q127 -242 411 -242q113 0 179 31l38 -228q-90 -39 -237 -39q-248 0 -428 127t-252 351 h-215l72 190h106q-2 23 -2 72q0 31 4 96h-182z" />
<glyph unicode="&#x20b4;" horiz-adv-x="1228" d="M139 463v190h250q33 33 96 82l105 86h-451v191h598q6 31 6 57q-2 152 -137 152q-131 0 -235 -91l-121 177q129 150 371 149q170 0 274 -90q102 -88 102 -231q0 -82 -32 -123h125v-191h-240q-39 -41 -100 -90q-78 -61 -97 -78h437v-190h-605q-35 -45 -34 -98 q0 -70 55 -111t145 -41q150 0 269 119l122 -162q-141 -193 -424 -193q-160 0 -276 91q-127 96 -127 254q0 80 39 141h-115z" />
<glyph unicode="&#x20b6;" horiz-adv-x="1228" d="M27 252v188h200v170h-200v189h200v635l406 4q555 0 555 -420q0 -188 -133 -295q-139 -113 -389 -113h-189v-170h336v-188h-336v-252h-250v252h-200zM477 799h180q264 0 265 196q0 207 -263 207q-47 0 -182 -4v-399z" />
<glyph unicode="&#x20ce;" horiz-adv-x="1228" d="M27 252v188h200v170h-200v189h200v635l406 4q555 0 555 -420q0 -188 -133 -295q-139 -113 -389 -113h-189v-170h336v-188h-336v-252h-250v252h-200zM477 799h180q264 0 265 196q0 207 -263 207q-47 0 -182 -4v-399z" />
<glyph unicode="&#x20cd;" horiz-adv-x="1228" d="M27 252v188h200v170h-200v189h200v635l406 4q555 0 555 -420q0 -188 -133 -295q-139 -113 -389 -113h-189v-170h336v-188h-336v-252h-250v252h-200zM477 799h180q264 0 265 196q0 207 -263 207q-47 0 -182 -4v-399z" />
<glyph unicode="&#x20cc;" horiz-adv-x="1228" d="M27 252v188h200v170h-200v189h200v635l406 4q555 0 555 -420q0 -188 -133 -295q-139 -113 -389 -113h-189v-170h336v-188h-336v-252h-250v252h-200zM477 799h180q264 0 265 196q0 207 -263 207q-47 0 -182 -4v-399z" />
<glyph unicode="&#x20cb;" horiz-adv-x="1228" d="M27 252v188h200v170h-200v189h200v635l406 4q555 0 555 -420q0 -188 -133 -295q-139 -113 -389 -113h-189v-170h336v-188h-336v-252h-250v252h-200zM477 799h180q264 0 265 196q0 207 -263 207q-47 0 -182 -4v-399z" />
<glyph unicode="&#x20ca;" horiz-adv-x="1228" d="M27 252v188h200v170h-200v189h200v635l406 4q555 0 555 -420q0 -188 -133 -295q-139 -113 -389 -113h-189v-170h336v-188h-336v-252h-250v252h-200zM477 799h180q264 0 265 196q0 207 -263 207q-47 0 -182 -4v-399z" />
<glyph unicode="&#x20c9;" horiz-adv-x="1228" d="M27 252v188h200v170h-200v189h200v635l406 4q555 0 555 -420q0 -188 -133 -295q-139 -113 -389 -113h-189v-170h336v-188h-336v-252h-250v252h-200zM477 799h180q264 0 265 196q0 207 -263 207q-47 0 -182 -4v-399z" />
<glyph unicode="&#x20c8;" horiz-adv-x="1228" d="M27 252v188h200v170h-200v189h200v635l406 4q555 0 555 -420q0 -188 -133 -295q-139 -113 -389 -113h-189v-170h336v-188h-336v-252h-250v252h-200zM477 799h180q264 0 265 196q0 207 -263 207q-47 0 -182 -4v-399z" />
<glyph unicode="&#x20c7;" horiz-adv-x="1228" d="M27 252v188h200v170h-200v189h200v635l406 4q555 0 555 -420q0 -188 -133 -295q-139 -113 -389 -113h-189v-170h336v-188h-336v-252h-250v252h-200zM477 799h180q264 0 265 196q0 207 -263 207q-47 0 -182 -4v-399z" />
<glyph unicode="&#x20c6;" horiz-adv-x="1228" d="M27 252v188h200v170h-200v189h200v635l406 4q555 0 555 -420q0 -188 -133 -295q-139 -113 -389 -113h-189v-170h336v-188h-336v-252h-250v252h-200zM477 799h180q264 0 265 196q0 207 -263 207q-47 0 -182 -4v-399z" />
<glyph unicode="&#x20c5;" horiz-adv-x="1228" d="M27 252v188h200v170h-200v189h200v635l406 4q555 0 555 -420q0 -188 -133 -295q-139 -113 -389 -113h-189v-170h336v-188h-336v-252h-250v252h-200zM477 799h180q264 0 265 196q0 207 -263 207q-47 0 -182 -4v-399z" />
<glyph unicode="&#x20c4;" horiz-adv-x="1228" d="M27 252v188h200v170h-200v189h200v635l406 4q555 0 555 -420q0 -188 -133 -295q-139 -113 -389 -113h-189v-170h336v-188h-336v-252h-250v252h-200zM477 799h180q264 0 265 196q0 207 -263 207q-47 0 -182 -4v-399z" />
<glyph unicode="&#x20c3;" horiz-adv-x="1228" d="M27 252v188h200v170h-200v189h200v635l406 4q555 0 555 -420q0 -188 -133 -295q-139 -113 -389 -113h-189v-170h336v-188h-336v-252h-250v252h-200zM477 799h180q264 0 265 196q0 207 -263 207q-47 0 -182 -4v-399z" />
<glyph unicode="&#x20c2;" horiz-adv-x="1228" d="M27 252v188h200v170h-200v189h200v635l406 4q555 0 555 -420q0 -188 -133 -295q-139 -113 -389 -113h-189v-170h336v-188h-336v-252h-250v252h-200zM477 799h180q264 0 265 196q0 207 -263 207q-47 0 -182 -4v-399z" />
<glyph unicode="&#x20c1;" horiz-adv-x="1228" d="M27 252v188h200v170h-200v189h200v635l406 4q555 0 555 -420q0 -188 -133 -295q-139 -113 -389 -113h-189v-170h336v-188h-336v-252h-250v252h-200zM477 799h180q264 0 265 196q0 207 -263 207q-47 0 -182 -4v-399z" />
<glyph unicode="&#x20c0;" horiz-adv-x="1228" d="M27 252v188h200v170h-200v189h200v635l406 4q555 0 555 -420q0 -188 -133 -295q-139 -113 -389 -113h-189v-170h336v-188h-336v-252h-250v252h-200zM477 799h180q264 0 265 196q0 207 -263 207q-47 0 -182 -4v-399z" />
<glyph unicode="&#x20bf;" horiz-adv-x="1228" d="M27 252v188h200v170h-200v189h200v635l406 4q555 0 555 -420q0 -188 -133 -295q-139 -113 -389 -113h-189v-170h336v-188h-336v-252h-250v252h-200zM477 799h180q264 0 265 196q0 207 -263 207q-47 0 -182 -4v-399z" />
<glyph unicode="&#x20be;" horiz-adv-x="1228" d="M27 252v188h200v170h-200v189h200v635l406 4q555 0 555 -420q0 -188 -133 -295q-139 -113 -389 -113h-189v-170h336v-188h-336v-252h-250v252h-200zM477 799h180q264 0 265 196q0 207 -263 207q-47 0 -182 -4v-399z" />
<glyph unicode="&#x20bd;" horiz-adv-x="1228" d="M27 252v188h200v170h-200v189h200v635l406 4q555 0 555 -420q0 -188 -133 -295q-139 -113 -389 -113h-189v-170h336v-188h-336v-252h-250v252h-200zM477 799h180q264 0 265 196q0 207 -263 207q-47 0 -182 -4v-399z" />
<glyph unicode="&#x20bc;" horiz-adv-x="1228" d="M27 252v188h200v170h-200v189h200v635l406 4q555 0 555 -420q0 -188 -133 -295q-139 -113 -389 -113h-189v-170h336v-188h-336v-252h-250v252h-200zM477 799h180q264 0 265 196q0 207 -263 207q-47 0 -182 -4v-399z" />
<glyph unicode="&#x20bb;" horiz-adv-x="1228" d="M27 252v188h200v170h-200v189h200v635l406 4q555 0 555 -420q0 -188 -133 -295q-139 -113 -389 -113h-189v-170h336v-188h-336v-252h-250v252h-200zM477 799h180q264 0 265 196q0 207 -263 207q-47 0 -182 -4v-399z" />
<glyph unicode="&#x20ba;" horiz-adv-x="1228" d="M27 252v188h200v170h-200v189h200v635l406 4q555 0 555 -420q0 -188 -133 -295q-139 -113 -389 -113h-189v-170h336v-188h-336v-252h-250v252h-200zM477 799h180q264 0 265 196q0 207 -263 207q-47 0 -182 -4v-399z" />
<glyph unicode="&#x20b9;" horiz-adv-x="1228" d="M27 252v188h200v170h-200v189h200v635l406 4q555 0 555 -420q0 -188 -133 -295q-139 -113 -389 -113h-189v-170h336v-188h-336v-252h-250v252h-200zM477 799h180q264 0 265 196q0 207 -263 207q-47 0 -182 -4v-399z" />
<glyph unicode="&#x20b7;" horiz-adv-x="1228" d="M27 252v188h200v170h-200v189h200v635l406 4q555 0 555 -420q0 -188 -133 -295q-139 -113 -389 -113h-189v-170h336v-188h-336v-252h-250v252h-200zM477 799h180q264 0 265 196q0 207 -263 207q-47 0 -182 -4v-399z" />
<glyph unicode="&#x2122;" horiz-adv-x="1771" d="M35 1221v213h661v-213h-219v-433h-221v433h-221zM776 788v646h199l244 -222l231 222h192v-646h-223v367l-205 -199h-4l-213 199v-367h-221z" />
<glyph unicode="&#x25fc;" horiz-adv-x="921" d="M0 0v922h922v-922h-922z" />
</font>
</defs>
</svg>
